<midi>
    <Modifier name="Shift Modifier 1" event_type="Note On" channel="5" control="96" />
    <Modifier name="Shift Modifier 1" event_type="Note On" channel="6" control="96" />
    <Modifier name="Shift Modifier 2" event_type="Note On" channel="5" control="26" />
    <Modifier name="Shift Modifier 2" event_type="Note On" channel="6" control="26" />
    <Modifier name="Shift Modifier 3" event_type="Note On" channel="5" control="107" />
    <Modifier name="Shift Modifier 3" event_type="Note On" channel="6" control="107" />
    <Modifier name="Shift Modifier 1" event_type="Note On" channel="5" control="96" />
    <Modifier name="Shift Modifier 1" event_type="Note On" channel="6" control="96" />
    <Modifier name="Shift Modifier 2" event_type="Note On" channel="5" control="26" />
    <Modifier name="Shift Modifier 2" event_type="Note On" channel="6" control="26" />
    <Modifier name="Shift Modifier 3" event_type="Note On" channel="5" control="107" />
    <Modifier name="Shift Modifier 3" event_type="Note On" channel="6" control="107" />
    <Modifier name="Shift Modifier 1" event_type="Note On" channel="5" control="96" />
    <Modifier name="Shift Modifier 1" event_type="Note On" channel="6" control="96" />
    <Modifier name="Shift Modifier 2" event_type="Note On" channel="5" control="26" />
    <Modifier name="Shift Modifier 2" event_type="Note On" channel="6" control="26" />
    <Modifier name="Shift Modifier 3" event_type="Note On" channel="5" control="107" />
    <Modifier name="Shift Modifier 3" event_type="Note On" channel="6" control="107" />
    <Modifier name="Shift Modifier 1" event_type="Note On" channel="5" control="96" />
    <Modifier name="Shift Modifier 1" event_type="Note On" channel="6" control="96" />
    <Modifier name="Shift Modifier 2" event_type="Note On" channel="5" control="26" />
    <Modifier name="Shift Modifier 2" event_type="Note On" channel="6" control="26" />
    <Modifier name="Shift Modifier 3" event_type="Note On" channel="5" control="107" />
    <Modifier name="Shift Modifier 3" event_type="Note On" channel="6" control="107" />
    <Modifier name="Shift Modifier 1" event_type="Note On" channel="5" control="96" />
    <Modifier name="Shift Modifier 1" event_type="Note On" channel="6" control="96" />
    <Modifier name="Shift Modifier 2" event_type="Note On" channel="5" control="26" />
    <Modifier name="Shift Modifier 2" event_type="Note On" channel="6" control="26" />
    <Modifier name="Shift Modifier 3" event_type="Note On" channel="5" control="107" />
    <Modifier name="Shift Modifier 3" event_type="Note On" channel="6" control="107" />
    <Modifier name="Shift Modifier 1" event_type="Note On" channel="5" control="96" />
    <Modifier name="Shift Modifier 1" event_type="Note On" channel="6" control="96" />
    <Control name="Trigger Cue Point Button B4" channel="1" event_type="Note On" control="12" />
    <Control name="Set Temp Cue Right Button" channel="1" event_type="Note On" control="14" />
    <Control name="Jump Temp Cue Right Button" channel="1" event_type="Note On" control="15" />
    <Control name="Trigger Cue Point Button B0" channel="1" event_type="Note On" control="16" />
    <Control name="Trigger Cue Point Button B1" channel="1" event_type="Note On" control="17" />
    <Control name="Trigger Cue Point Button B2" channel="1" event_type="Note On" control="18" />
    <Control name="Trigger Cue Point Button B3" channel="1" event_type="Note On" control="19" />
    <Control name="Trigger Cue Point Button A4" channel="1" event_type="Note On" control="20" />
    <Control name="Set Temp Cue Left Button" channel="1" event_type="Note On" control="22" />
    <Control name="Jump Temp Cue Left Button" channel="1" event_type="Note On" control="23" />
    <Control name="Trigger Cue Point Button A0" channel="1" event_type="Note On" control="24" />
    <Control name="Trigger Cue Point Button A1" channel="1" event_type="Note On" control="25" />
    <Control name="Trigger Cue Point Button A2" channel="1" event_type="Note On" control="26" />
    <Control name="Trigger Cue Point Button A3" channel="1" event_type="Note On" control="27" />
    <Control name="Instant Double Left Button" channel="1" event_type="Control Change" control="3" />
    <Control name="AutoLoopSelect Knob A" channel="1" event_type="Control Change" control="14" />
    <Control name="AutoLoopSelect Knob B" channel="1" event_type="Control Change" control="18" />
    <Control name="Auto Loop Button A" channel="1" event_type="Control Change" control="46" />
    <Control name="Loop Roll Button A" channel="1" event_type="Control Change" control="47" />
    <Control name="Reloop Button A" channel="1" event_type="Control Change" control="49" />
    <Control name="Auto Loop Button B" channel="1" event_type="Control Change" control="50" />
    <Control name="Loop Roll Button B" channel="1" event_type="Control Change" control="51" />
    <Control name="Reloop Button B" channel="1" event_type="Control Change" control="53" />
    <Control name="Scroll Library Knob" channel="1" event_type="Control Change" data_type="Relative Signed Bit" control="60" />
    <Control name="Load Left Button" channel="1" event_type="Control Change" data_type="Absolute 7" control="98" />
    <Control name="Load Right Button" channel="1" event_type="Control Change" data_type="Absolute 7" control="99" />
    <Control name="Instant Double Right Button" channel="1" event_type="Control Change" data_type="Absolute 7" control="100" />
    <Control name="Tab Focus Button" channel="1" event_type="Control Change" control="102" reversed="true" />
    <Control name="Loop In Adjust Button B" channel="2" event_type="Note On" control="12" />
    <Control name="Loop Out Adjust Button B" channel="2" event_type="Note On" control="13" />
    <Control name="Prev Loop Button B" channel="2" event_type="Note On" control="14" />
    <Control name="Next Loop Button B" channel="2" event_type="Note On" control="15" />
    <Control name="Loop In Adjust Button A" channel="2" event_type="Note On" control="20" />
    <Control name="Loop Out Adjust Button A" channel="2" event_type="Note On" control="21" />
    <Control name="Prev Loop Button A" channel="2" event_type="Note On" control="22" />
    <Control name="Next Loop Button A" channel="2" event_type="Note On" control="23" />
    <Control name="Auto Loop Save or Lock Container B" channel="2" event_type="Note On" control="27" />
    <Control name="Effect Ultra Select 1" channel="2" event_type="Control Change" control="14" />
    <Control name="Effect Beats Display 1" channel="2" event_type="Control Change" control="15" />
    <Control name="Effect Ultra Knob 1" channel="2" event_type="Control Change" control="17" />
    <Control name="Effect Ultra Select 2" channel="2" event_type="Control Change" control="18" />
    <Control name="Effect Beats Display 2" channel="2" event_type="Control Change" control="19" />
    <Control name="Effect Ultra Knob 2" channel="2" event_type="Control Change" control="21" />
    <Control name="Effect Ultra On Button 1" channel="2" event_type="Control Change" control="46" />
    <Control name="Effect Button 2 1" channel="2" event_type="Control Change" control="47" />
    <Control name="Effect Unit 0 Attach To Deck 1" channel="2" event_type="Control Change" control="48" />
    <Control name="Effect Unit 0 Attach To Deck 2" channel="2" event_type="Control Change" control="49" />
    <Control name="Effect Ultra On Button 2" channel="2" event_type="Control Change" control="50" />
    <Control name="Effect Unit 1 Attach To Deck 1" channel="2" event_type="Control Change" control="52" />
    <Control name="Effect Unit 1 Attach To Deck 2" channel="2" event_type="Control Change" control="53" />
    <Control name="Sample Player Play 5" channel="3" event_type="Note On" control="12" />
    <Control name="Sample Player Play 6" channel="3" event_type="Note On" control="13" />
    <Control name="Sample Player Play 1" channel="3" event_type="Note On" control="16" />
    <Control name="Sample Player Play 2" channel="3" event_type="Note On" control="17" />
    <Control name="Sample Player Play 3" channel="3" event_type="Note On" control="18" />
    <Control name="Sample Player Play 4" channel="3" event_type="Note On" control="19" />
    <Control name="Sample Player Output L" channel="3" event_type="Note On" control="20" />
    <Control name="Sample Player Output M" channel="3" event_type="Note On" control="21" />
    <Control name="Sample Player Output R" channel="3" event_type="Note On" control="22" />
    <Control name="Sample Player Bank A Button" channel="3" event_type="Note On" control="24" />
    <Control name="Sample Player Bank B Button" channel="3" event_type="Note On" control="25" />
    <Control name="Sample Player Bank C Button" channel="3" event_type="Note On" control="26" />
    <Control name="Sample Player Bank D Button" channel="3" event_type="Note On" control="27" />
    <Control name="Auto Loop One Button B" channel="4" event_type="Note On" control="12" />
    <Control name="Auto Loop Two Button B" channel="4" event_type="Note On" control="13" />
    <Control name="Auto Loop Four Button B" channel="4" event_type="Note On" control="14" />
    <Control name="Auto Loop Eight Button B" channel="4" event_type="Note On" control="15" />
    <Control name="Auto Loop Sixteenth Button B" channel="4" event_type="Note On" control="16" />
    <Control name="Auto Loop Eighth Button B" channel="4" event_type="Note On" control="17" />
    <Control name="Auto Loop Fourth Button B" channel="4" event_type="Note On" control="18" />
    <Control name="Auto Loop Half Button B" channel="4" event_type="Note On" control="19" />
    <Control name="Auto Loop One Button A" channel="4" event_type="Note On" control="20" />
    <Control name="Auto Loop Two Button A" channel="4" event_type="Note On" control="21" />
    <Control name="Auto Loop Four Button A" channel="4" event_type="Note On" control="22" />
    <Control name="Auto Loop Eight Button A" channel="4" event_type="Note On" control="23" />
    <Control name="Auto Loop Sixteenth Button A" channel="4" event_type="Note On" control="24" />
    <Control name="Auto Loop Eighth Button A" channel="4" event_type="Note On" control="25" />
    <Control name="Auto Loop Fourth Button A" channel="4" event_type="Note On" control="26" />
    <Control name="Auto Loop Half Button A" channel="4" event_type="Note On" control="27" />
    <Output name="Set Cue Point Button A0">
        <On channel="2" event_type="Note On" control="24" value="127" />
        <Off channel="2" event_type="Note Off" control="24" value="0" />
    </Output>
    <Output name="Set Cue Point Button A1">
        <On channel="2" event_type="Note On" control="20" value="127" />
        <Off channel="2" event_type="Note Off" control="20" value="0" />
    </Output>
    <Output name="Set Cue Point Button A2">
        <On channel="2" event_type="Note On" control="16" value="127" />
        <Off channel="2" event_type="Note Off" control="16" value="0" />
    </Output>
    <Output name="Set Cue Point Button A4">
        <On channel="2" event_type="Note On" control="13" value="127" />
        <Off channel="2" event_type="Note Off" control="13" value="0" />
    </Output>
    <Output name="Sample Player Master Mute">
        <On channel="3" event_type="Note On" control="23" value="127" />
        <Off channel="3" event_type="Note Off" control="23" value="0" />
    </Output>
    <Output name="Censor Button A">
        <On channel="1" event_type="Note On" control="22" value="127" />
        <Off channel="1" event_type="Note Off" control="22" value="0" />
    </Output>
    <Output name="Censor Button B">
        <On channel="1" event_type="Note On" control="14" value="127" />
        <Off channel="1" event_type="Note Off" control="14" value="0" />
    </Output>
    <Output name="Auto Loop Button B">
        <On channel="1" event_type="Note On" control="23" value="127" />
        <Off channel="1" event_type="Note Off" control="23" value="0" />
    </Output>
    <Output name="Loop Roll Button A">
        <On channel="1" event_type="Note On" control="22" value="127" />
        <Off channel="1" event_type="Note Off" control="22" value="0" />
    </Output>
    <Output name="Loop Roll Button B">
        <On channel="1" event_type="Note On" control="14" value="127" />
        <Off channel="1" event_type="Note Off" control="14" value="0" />
    </Output>
    <Output name="Clear Loop Button A">
        <On channel="2" event_type="Note On" control="27" value="127" />
        <Off channel="2" event_type="Note Off" control="27" value="0" />
    </Output>
    <Output name="Clear Loop Button B">
        <On channel="2" event_type="Note On" control="19" value="127" />
        <Off channel="2" event_type="Note Off" control="19" value="0" />
    </Output>
    <Output name="Reloop Button B">
        <On channel="2" event_type="Note On" control="16" value="127" />
        <Off channel="2" event_type="Note Off" control="16" value="0" />
    </Output>
    <Output name="Set Cue Point Button B0">
        <On channel="1" event_type="Note On" control="16" value="127" />
        <Off channel="1" event_type="Note Off" control="16" value="0" />
    </Output>
    <Output name="Set Cue Point Button B1">
        <On channel="1" event_type="Note On" control="17" value="127" />
        <Off channel="1" event_type="Note Off" control="17" value="0" />
    </Output>
    <Output name="Set Cue Point Button B2">
        <On channel="1" event_type="Note On" control="18" value="127" />
        <Off channel="1" event_type="Note Off" control="18" value="0" />
    </Output>
    <Output name="Set Cue Point Button B3">
        <On channel="1" event_type="Note On" control="19" value="127" />
        <Off channel="1" event_type="Note Off" control="19" value="0" />
    </Output>
    <Output name="Set Cue Point Button B4">
        <On channel="1" event_type="Note On" control="12" value="127" />
        <Off channel="1" event_type="Note Off" control="12" value="0" />
    </Output>
    <Output name="Set Cue Left Button">
        <On channel="1" event_type="Note On" control="22" value="127" />
        <Off channel="1" event_type="Note Off" control="22" value="0" />
    </Output>
    <Output name="Jump Temp Cue Left Button">
        <On channel="1" event_type="Note On" control="23" value="127" />
        <Off channel="1" event_type="Note Off" control="23" value="0" />
    </Output>
    <Output name="Set Cue Right Button">
        <On channel="1" event_type="Note On" control="14" value="127" />
        <Off channel="1" event_type="Note Off" control="14" value="0" />
    </Output>
    <Output name="Jump Temp Cue Right Button">
        <On channel="1" event_type="Note On" control="15" value="127" />
        <Off channel="1" event_type="Note Off" control="15" value="0" />
    </Output>
    <Output name="Set Temp Cue Left Button">
        <On channel="1" event_type="Note On" control="22" value="127" />
        <Off channel="1" event_type="Note Off" control="22" value="0" />
    </Output>
    <Output name="Set Temp Cue Right Button">
        <On channel="1" event_type="Note On" control="14" value="127" />
        <Off channel="1" event_type="Note Off" control="14" value="0" />
    </Output>
    <Output name="Sample Player Play 1">
        <On channel="3" event_type="Note On" control="16" value="127" />
        <Off channel="3" event_type="Note Off" control="16" value="0" />
    </Output>
    <Output name="Sample Player Play 2">
        <On channel="3" event_type="Note On" control="17" value="127" />
        <Off channel="3" event_type="Note Off" control="17" value="0" />
    </Output>
    <Output name="Sample Player Play 3">
        <On channel="3" event_type="Note On" control="18" value="127" />
        <Off channel="3" event_type="Note Off" control="18" value="0" />
    </Output>
    <Output name="Sample Player Play 4">
        <On channel="3" event_type="Note On" control="19" value="127" />
        <Off channel="3" event_type="Note Off" control="19" value="0" />
    </Output>
    <Output name="Sample Player Play 5">
        <On channel="3" event_type="Note On" control="12" value="127" />
        <Off channel="3" event_type="Note Off" control="12" value="0" />
    </Output>
    <Output name="Sample Player Play 6">
        <On channel="3" event_type="Note On" control="13" value="127" />
        <Off channel="3" event_type="Note Off" control="13" value="0" />
    </Output>
    <Output name="Sample Player Bank A Button">
        <On channel="3" event_type="Note On" control="24" value="127" />
        <Off channel="3" event_type="Note Off" control="24" value="0" />
    </Output>
    <Output name="Sample Player Bank B Button">
        <On channel="3" event_type="Note On" control="25" value="127" />
        <Off channel="3" event_type="Note Off" control="25" value="0" />
    </Output>
    <Output name="Sample Player Bank C Button">
        <On channel="3" event_type="Note On" control="26" value="127" />
        <Off channel="3" event_type="Note Off" control="26" value="0" />
    </Output>
    <Output name="Sample Player Bank D Button">
        <On channel="3" event_type="Note On" control="27" value="127" />
        <Off channel="3" event_type="Note Off" control="27" value="0" />
    </Output>
    <Output name="Sample Player Output L">
        <On channel="3" event_type="Note On" control="20" value="127" />
        <Off channel="3" event_type="Note Off" control="20" value="0" />
    </Output>
    <Output name="Sample Player Output M">
        <On channel="3" event_type="Note On" control="21" value="127" />
        <Off channel="3" event_type="Note Off" control="21" value="0" />
    </Output>
    <Output name="Sample Player Output R">
        <On channel="3" event_type="Note On" control="22" value="127" />
        <Off channel="3" event_type="Note Off" control="22" value="0" />
    </Output>
    <Output name="Loop In Adjust Button B">
        <On channel="2" event_type="Note On" control="12" value="127" />
        <Off channel="2" event_type="Note Off" control="12" value="0" />
    </Output>
    <Output name="Loop Out Adjust Button B">
        <On channel="2" event_type="Note On" control="13" value="127" />
        <Off channel="2" event_type="Note Off" control="13" value="0" />
    </Output>
    <Output name="Next Loop Button A">
        <On channel="2" event_type="Note On" control="23" value="127" />
        <Off channel="2" event_type="Note Off" control="23" value="0" />
    </Output>
    <Output name="Prev Loop Button B">
        <On channel="2" event_type="Note On" control="14" value="127" />
        <Off channel="2" event_type="Note Off" control="14" value="0" />
    </Output>
    <Output name="Next Loop Button B">
        <On channel="2" event_type="Note On" control="15" value="127" />
        <Off channel="2" event_type="Note Off" control="15" value="0" />
    </Output>
    <Output name="Auto Loop Save or Lock Container A">
        <On channel="2" event_type="Note On" control="27" value="127" />
        <Off channel="2" event_type="Note Off" control="27" value="0" />
    </Output>
    <Output name="Auto Loop Save or Lock Container B">
        <On channel="2" event_type="Note On" control="27" value="127" />
        <Off channel="2" event_type="Note Off" control="27" value="0" />
    </Output>
    <Output name="Auto Loop Sixteenth Button A">
        <On channel="4" event_type="Note On" control="24" value="127" />
        <Off channel="4" event_type="Note Off" control="24" value="0" />
    </Output>
    <Output name="Auto Loop Eighth Button A">
        <On channel="4" event_type="Note On" control="25" value="127" />
        <Off channel="4" event_type="Note Off" control="25" value="0" />
    </Output>
    <Output name="Auto Loop Eight Button A">
        <On channel="4" event_type="Note On" control="23" value="127" />
        <Off channel="4" event_type="Note Off" control="23" value="0" />
    </Output>
    <Output name="Auto Loop Four Button A">
        <On channel="4" event_type="Note On" control="22" value="127" />
        <Off channel="4" event_type="Note Off" control="22" value="0" />
    </Output>
    <Output name="Auto Loop Two Button A">
        <On channel="4" event_type="Note On" control="21" value="127" />
        <Off channel="4" event_type="Note Off" control="21" value="0" />
    </Output>
    <Output name="Auto Loop One Button A">
        <On channel="4" event_type="Note On" control="20" value="127" />
        <Off channel="4" event_type="Note Off" control="20" value="0" />
    </Output>
    <Output name="Auto Loop Fourth Button A">
        <On channel="4" event_type="Note On" control="26" value="127" />
        <Off channel="4" event_type="Note Off" control="26" value="0" />
    </Output>
    <Output name="Auto Loop Half Button A">
        <On channel="4" event_type="Note On" control="27" value="127" />
        <Off channel="4" event_type="Note Off" control="27" value="0" />
    </Output>
    <Output name="Auto Loop Sixteenth Button B">
        <On channel="4" event_type="Note On" control="16" value="127" />
        <Off channel="4" event_type="Note Off" control="16" value="0" />
    </Output>
    <Output name="Auto Loop Eighth Button B">
        <On channel="4" event_type="Note On" control="17" value="127" />
        <Off channel="4" event_type="Note Off" control="17" value="0" />
    </Output>
    <Output name="Auto Loop Fourth Button B">
        <On channel="4" event_type="Note On" control="18" value="127" />
        <Off channel="4" event_type="Note Off" control="18" value="0" />
    </Output>
    <Output name="Auto Loop Half Button B">
        <On channel="4" event_type="Note On" control="19" value="127" />
        <Off channel="4" event_type="Note Off" control="19" value="0" />
    </Output>
    <Output name="Auto Loop One Button B">
        <On channel="4" event_type="Note On" control="12" value="127" />
        <Off channel="4" event_type="Note Off" control="12" value="0" />
    </Output>
    <Output name="Auto Loop Two Button B">
        <On channel="4" event_type="Note On" control="13" value="127" />
        <Off channel="4" event_type="Note Off" control="13" value="0" />
    </Output>
    <Output name="Auto Loop Eight Button B">
        <On channel="4" event_type="Note On" control="15" value="127" />
        <Off channel="4" event_type="Note Off" control="15" value="0" />
    </Output>
    <Output name="Auto Loop Four Button B">
        <On channel="4" event_type="Note On" control="14" value="127" />
        <Off channel="4" event_type="Note Off" control="14" value="0" />
    </Output>
    <Output name="Trigger Cue Point Button B0">
        <On channel="1" event_type="Note On" control="16" value="127" />
        <Off channel="1" event_type="Note Off" control="16" value="0" />
    </Output>
    <Output name="Trigger Cue Point Button B1">
        <On channel="1" event_type="Note On" control="17" value="127" />
        <Off channel="1" event_type="Note Off" control="17" value="0" />
    </Output>
    <Output name="Trigger Cue Point Button B2">
        <On channel="1" event_type="Note On" control="18" value="127" />
        <Off channel="1" event_type="Note Off" control="18" value="0" />
    </Output>
    <Output name="Trigger Cue Point Button B3">
        <On channel="1" event_type="Note On" control="19" value="127" />
        <Off channel="1" event_type="Note Off" control="19" value="0" />
    </Output>
    <Output name="Trigger Cue Point Button B4">
        <On channel="1" event_type="Note On" control="12" value="127" />
        <Off channel="1" event_type="Note Off" control="12" value="0" />
    </Output>
    <Output name="Prev Loop Button A">
        <On channel="2" event_type="Note On" control="22" value="127" />
        <Off channel="2" event_type="Note Off" control="22" value="0" />
    </Output>
    <Output name="Show Recording Widget Button">
        <On channel="1" event_type="Note On" control="68" value="127" />
        <Off channel="1" event_type="Note Off" control="68" value="0" />
    </Output>
    <Output name="Trigger Cue Point Button A4">
        <On channel="1" event_type="Note On" control="115" value="127" />
        <Off channel="1" event_type="Note Off" control="115" value="0" />
    </Output>
    <Output name="Key Lock Button A">
        <On channel="1" event_type="Note On" control="6" value="127" />
        <Off channel="1" event_type="Note Off" control="6" value="0" />
    </Output>
    <Output name="Key Lock Button B">
        <On channel="2" event_type="Note On" control="6" value="127" />
        <Off channel="2" event_type="Note Off" control="6" value="0" />
    </Output>
    <Output name="Eject Button B">
        <On channel="2" event_type="Note On" control="1" value="127" />
        <Off channel="2" event_type="Note Off" control="1" value="0" />
    </Output>
    <Output name="Auto Loop Button A">
        <On channel="1" event_type="Note On" control="29" value="127" />
        <Off channel="1" event_type="Note Off" control="29" value="0" />
    </Output>
    <Output name="Loop In Adjust Button A">
        <On channel="1" event_type="Note On" control="55" value="127" />
        <Off channel="1" event_type="Note Off" control="55" value="0" />
    </Output>
    <Output name="Loop Out Adjust Button A">
        <On channel="1" event_type="Note On" control="57" value="127" />
        <Off channel="1" event_type="Note Off" control="57" value="0" />
    </Output>
    <Output name="Reloop Button A">
        <On channel="1" event_type="Note On" control="64" value="127" />
        <Off channel="1" event_type="Note Off" control="64" value="0" />
    </Output>
    <Output name="Loop Button A">
        <On channel="1" event_type="Note On" control="104" value="127" />
        <Off channel="1" event_type="Note Off" control="104" value="0" />
    </Output>
    <Output name="Loop Button B">
        <On channel="2" event_type="Note On" control="104" value="127" />
        <Off channel="2" event_type="Note Off" control="104" value="0" />
    </Output>
    <Output name="Rewind A">
        <On channel="1" event_type="Note On" control="17" value="127" />
        <Off channel="1" event_type="Note Off" control="17" value="0" />
    </Output>
    <Output name="Fast Forward A">
        <On channel="1" event_type="Note On" control="16" value="127" />
        <Off channel="1" event_type="Note Off" control="16" value="0" />
    </Output>
    <Output name="Previous Track A">
        <On channel="1" event_type="Note On" control="13" value="127" />
        <Off channel="1" event_type="Note Off" control="13" value="0" />
    </Output>
    <Output name="Next Track A">
        <On channel="1" event_type="Note On" control="12" value="127" />
        <Off channel="1" event_type="Note Off" control="12" value="0" />
    </Output>
    <Output name="Relative Mode Button A">
        <On channel="1" event_type="Note On" control="96" value="127" />
        <Off channel="1" event_type="Note Off" control="96" value="0" />
    </Output>
    <Output name="Trigger Cue Point Button A2">
        <On channel="1" event_type="Note On" control="25" value="127" />
        <Off channel="1" event_type="Note Off" control="25" value="0" />
    </Output>
    <Output name="Trigger Cue Point Button A3">
        <On channel="1" event_type="Note On" control="32" value="127" />
        <Off channel="1" event_type="Note Off" control="32" value="0" />
    </Output>
    <Output name="Eject Button A">
        <On channel="1" event_type="Note On" control="1" value="127" />
        <Off channel="1" event_type="Note Off" control="1" value="0" />
    </Output>
    <Output name="Trigger Cue Point Button A1">
        <On channel="1" event_type="Note On" control="24" value="127" />
        <Off channel="1" event_type="Note Off" control="24" value="0" />
    </Output>
    <Output name="Trigger Cue Point Button A0">
        <On channel="1" event_type="Note On" control="23" value="127" />
        <Off channel="1" event_type="Note Off" control="23" value="0" />
    </Output>
    <Output name="Set Cue Point Button A0">
        <On channel="2" event_type="Note On" control="24" value="127" />
        <Off channel="2" event_type="Note Off" control="24" value="0" />
    </Output>
    <Output name="Set Cue Point Button A1">
        <On channel="2" event_type="Note On" control="20" value="127" />
        <Off channel="2" event_type="Note Off" control="20" value="0" />
    </Output>
    <Output name="Set Cue Point Button A2">
        <On channel="2" event_type="Note On" control="16" value="127" />
        <Off channel="2" event_type="Note Off" control="16" value="0" />
    </Output>
    <Output name="Set Cue Point Button A4">
        <On channel="2" event_type="Note On" control="13" value="127" />
        <Off channel="2" event_type="Note Off" control="13" value="0" />
    </Output>
    <Output name="Sample Player Master Mute">
        <On channel="3" event_type="Note On" control="23" value="127" />
        <Off channel="3" event_type="Note Off" control="23" value="0" />
    </Output>
    <Output name="Censor Button A">
        <On channel="1" event_type="Note On" control="22" value="127" />
        <Off channel="1" event_type="Note Off" control="22" value="0" />
    </Output>
    <Output name="Censor Button B">
        <On channel="1" event_type="Note On" control="14" value="127" />
        <Off channel="1" event_type="Note Off" control="14" value="0" />
    </Output>
    <Output name="Auto Loop Button B">
        <On channel="1" event_type="Note On" control="23" value="127" />
        <Off channel="1" event_type="Note Off" control="23" value="0" />
    </Output>
    <Output name="Loop Roll Button A">
        <On channel="1" event_type="Note On" control="22" value="127" />
        <Off channel="1" event_type="Note Off" control="22" value="0" />
    </Output>
    <Output name="Loop Roll Button B">
        <On channel="1" event_type="Note On" control="14" value="127" />
        <Off channel="1" event_type="Note Off" control="14" value="0" />
    </Output>
    <Output name="Clear Loop Button A">
        <On channel="2" event_type="Note On" control="27" value="127" />
        <Off channel="2" event_type="Note Off" control="27" value="0" />
    </Output>
    <Output name="Clear Loop Button B">
        <On channel="2" event_type="Note On" control="19" value="127" />
        <Off channel="2" event_type="Note Off" control="19" value="0" />
    </Output>
    <Output name="Reloop Button B">
        <On channel="2" event_type="Note On" control="16" value="127" />
        <Off channel="2" event_type="Note Off" control="16" value="0" />
    </Output>
    <Output name="Set Cue Point Button B0">
        <On channel="1" event_type="Note On" control="16" value="127" />
        <Off channel="1" event_type="Note Off" control="16" value="0" />
    </Output>
    <Output name="Set Cue Point Button B1">
        <On channel="1" event_type="Note On" control="17" value="127" />
        <Off channel="1" event_type="Note Off" control="17" value="0" />
    </Output>
    <Output name="Set Cue Point Button B2">
        <On channel="1" event_type="Note On" control="18" value="127" />
        <Off channel="1" event_type="Note Off" control="18" value="0" />
    </Output>
    <Output name="Set Cue Point Button B3">
        <On channel="1" event_type="Note On" control="19" value="127" />
        <Off channel="1" event_type="Note Off" control="19" value="0" />
    </Output>
    <Output name="Set Cue Point Button B4">
        <On channel="1" event_type="Note On" control="12" value="127" />
        <Off channel="1" event_type="Note Off" control="12" value="0" />
    </Output>
    <Output name="Set Cue Left Button">
        <On channel="1" event_type="Note On" control="22" value="127" />
        <Off channel="1" event_type="Note Off" control="22" value="0" />
    </Output>
    <Output name="Jump Temp Cue Left Button">
        <On channel="1" event_type="Note On" control="23" value="127" />
        <Off channel="1" event_type="Note Off" control="23" value="0" />
    </Output>
    <Output name="Set Cue Right Button">
        <On channel="1" event_type="Note On" control="14" value="127" />
        <Off channel="1" event_type="Note Off" control="14" value="0" />
    </Output>
    <Output name="Jump Temp Cue Right Button">
        <On channel="1" event_type="Note On" control="15" value="127" />
        <Off channel="1" event_type="Note Off" control="15" value="0" />
    </Output>
    <Output name="Set Temp Cue Left Button">
        <On channel="1" event_type="Note On" control="22" value="127" />
        <Off channel="1" event_type="Note Off" control="22" value="0" />
    </Output>
    <Output name="Set Temp Cue Right Button">
        <On channel="1" event_type="Note On" control="14" value="127" />
        <Off channel="1" event_type="Note Off" control="14" value="0" />
    </Output>
    <Output name="Sample Player Play 1">
        <On channel="3" event_type="Note On" control="16" value="127" />
        <Off channel="3" event_type="Note Off" control="16" value="0" />
    </Output>
    <Output name="Sample Player Play 2">
        <On channel="3" event_type="Note On" control="17" value="127" />
        <Off channel="3" event_type="Note Off" control="17" value="0" />
    </Output>
    <Output name="Sample Player Play 3">
        <On channel="3" event_type="Note On" control="18" value="127" />
        <Off channel="3" event_type="Note Off" control="18" value="0" />
    </Output>
    <Output name="Sample Player Play 4">
        <On channel="3" event_type="Note On" control="19" value="127" />
        <Off channel="3" event_type="Note Off" control="19" value="0" />
    </Output>
    <Output name="Sample Player Play 5">
        <On channel="3" event_type="Note On" control="12" value="127" />
        <Off channel="3" event_type="Note Off" control="12" value="0" />
    </Output>
    <Output name="Sample Player Play 6">
        <On channel="3" event_type="Note On" control="13" value="127" />
        <Off channel="3" event_type="Note Off" control="13" value="0" />
    </Output>
    <Output name="Sample Player Bank A Button">
        <On channel="3" event_type="Note On" control="24" value="127" />
        <Off channel="3" event_type="Note Off" control="24" value="0" />
    </Output>
    <Output name="Sample Player Bank B Button">
        <On channel="3" event_type="Note On" control="25" value="127" />
        <Off channel="3" event_type="Note Off" control="25" value="0" />
    </Output>
    <Output name="Sample Player Bank C Button">
        <On channel="3" event_type="Note On" control="26" value="127" />
        <Off channel="3" event_type="Note Off" control="26" value="0" />
    </Output>
    <Output name="Sample Player Bank D Button">
        <On channel="3" event_type="Note On" control="27" value="127" />
        <Off channel="3" event_type="Note Off" control="27" value="0" />
    </Output>
    <Output name="Sample Player Output L">
        <On channel="3" event_type="Note On" control="20" value="127" />
        <Off channel="3" event_type="Note Off" control="20" value="0" />
    </Output>
    <Output name="Sample Player Output M">
        <On channel="3" event_type="Note On" control="21" value="127" />
        <Off channel="3" event_type="Note Off" control="21" value="0" />
    </Output>
    <Output name="Sample Player Output R">
        <On channel="3" event_type="Note On" control="22" value="127" />
        <Off channel="3" event_type="Note Off" control="22" value="0" />
    </Output>
    <Output name="Loop In Adjust Button B">
        <On channel="2" event_type="Note On" control="12" value="127" />
        <Off channel="2" event_type="Note Off" control="12" value="0" />
    </Output>
    <Output name="Loop Out Adjust Button B">
        <On channel="2" event_type="Note On" control="13" value="127" />
        <Off channel="2" event_type="Note Off" control="13" value="0" />
    </Output>
    <Output name="Next Loop Button A">
        <On channel="2" event_type="Note On" control="23" value="127" />
        <Off channel="2" event_type="Note Off" control="23" value="0" />
    </Output>
    <Output name="Prev Loop Button B">
        <On channel="2" event_type="Note On" control="14" value="127" />
        <Off channel="2" event_type="Note Off" control="14" value="0" />
    </Output>
    <Output name="Next Loop Button B">
        <On channel="2" event_type="Note On" control="15" value="127" />
        <Off channel="2" event_type="Note Off" control="15" value="0" />
    </Output>
    <Output name="Auto Loop Save or Lock Container A">
        <On channel="2" event_type="Note On" control="27" value="127" />
        <Off channel="2" event_type="Note Off" control="27" value="0" />
    </Output>
    <Output name="Auto Loop Save or Lock Container B">
        <On channel="2" event_type="Note On" control="27" value="127" />
        <Off channel="2" event_type="Note Off" control="27" value="0" />
    </Output>
    <Output name="Auto Loop Sixteenth Button A">
        <On channel="4" event_type="Note On" control="24" value="127" />
        <Off channel="4" event_type="Note Off" control="24" value="0" />
    </Output>
    <Output name="Auto Loop Eighth Button A">
        <On channel="4" event_type="Note On" control="25" value="127" />
        <Off channel="4" event_type="Note Off" control="25" value="0" />
    </Output>
    <Output name="Auto Loop Eight Button A">
        <On channel="4" event_type="Note On" control="23" value="127" />
        <Off channel="4" event_type="Note Off" control="23" value="0" />
    </Output>
    <Output name="Auto Loop Four Button A">
        <On channel="4" event_type="Note On" control="22" value="127" />
        <Off channel="4" event_type="Note Off" control="22" value="0" />
    </Output>
    <Output name="Auto Loop Two Button A">
        <On channel="4" event_type="Note On" control="21" value="127" />
        <Off channel="4" event_type="Note Off" control="21" value="0" />
    </Output>
    <Output name="Auto Loop One Button A">
        <On channel="4" event_type="Note On" control="20" value="127" />
        <Off channel="4" event_type="Note Off" control="20" value="0" />
    </Output>
    <Output name="Auto Loop Fourth Button A">
        <On channel="4" event_type="Note On" control="26" value="127" />
        <Off channel="4" event_type="Note Off" control="26" value="0" />
    </Output>
    <Output name="Auto Loop Half Button A">
        <On channel="4" event_type="Note On" control="27" value="127" />
        <Off channel="4" event_type="Note Off" control="27" value="0" />
    </Output>
    <Output name="Auto Loop Sixteenth Button B">
        <On channel="4" event_type="Note On" control="16" value="127" />
        <Off channel="4" event_type="Note Off" control="16" value="0" />
    </Output>
    <Output name="Auto Loop Eighth Button B">
        <On channel="4" event_type="Note On" control="17" value="127" />
        <Off channel="4" event_type="Note Off" control="17" value="0" />
    </Output>
    <Output name="Auto Loop Fourth Button B">
        <On channel="4" event_type="Note On" control="18" value="127" />
        <Off channel="4" event_type="Note Off" control="18" value="0" />
    </Output>
    <Output name="Auto Loop Half Button B">
        <On channel="4" event_type="Note On" control="19" value="127" />
        <Off channel="4" event_type="Note Off" control="19" value="0" />
    </Output>
    <Output name="Auto Loop One Button B">
        <On channel="4" event_type="Note On" control="12" value="127" />
        <Off channel="4" event_type="Note Off" control="12" value="0" />
    </Output>
    <Output name="Auto Loop Two Button B">
        <On channel="4" event_type="Note On" control="13" value="127" />
        <Off channel="4" event_type="Note Off" control="13" value="0" />
    </Output>
    <Output name="Auto Loop Eight Button B">
        <On channel="4" event_type="Note On" control="15" value="127" />
        <Off channel="4" event_type="Note Off" control="15" value="0" />
    </Output>
    <Output name="Auto Loop Four Button B">
        <On channel="4" event_type="Note On" control="14" value="127" />
        <Off channel="4" event_type="Note Off" control="14" value="0" />
    </Output>
    <Output name="Trigger Cue Point Button B0">
        <On channel="1" event_type="Note On" control="16" value="127" />
        <Off channel="1" event_type="Note Off" control="16" value="0" />
    </Output>
    <Output name="Trigger Cue Point Button B1">
        <On channel="1" event_type="Note On" control="17" value="127" />
        <Off channel="1" event_type="Note Off" control="17" value="0" />
    </Output>
    <Output name="Trigger Cue Point Button B2">
        <On channel="1" event_type="Note On" control="18" value="127" />
        <Off channel="1" event_type="Note Off" control="18" value="0" />
    </Output>
    <Output name="Trigger Cue Point Button B3">
        <On channel="1" event_type="Note On" control="19" value="127" />
        <Off channel="1" event_type="Note Off" control="19" value="0" />
    </Output>
    <Output name="Trigger Cue Point Button B4">
        <On channel="1" event_type="Note On" control="12" value="127" />
        <Off channel="1" event_type="Note Off" control="12" value="0" />
    </Output>
    <Output name="Prev Loop Button A">
        <On channel="2" event_type="Note On" control="22" value="127" />
        <Off channel="2" event_type="Note Off" control="22" value="0" />
    </Output>
    <Output name="Show Recording Widget Button">
        <On channel="1" event_type="Note On" control="68" value="127" />
        <Off channel="1" event_type="Note Off" control="68" value="0" />
    </Output>
    <Output name="Trigger Cue Point Button A4">
        <On channel="1" event_type="Note On" control="115" value="127" />
        <Off channel="1" event_type="Note Off" control="115" value="0" />
    </Output>
    <Output name="Key Lock Button A">
        <On channel="1" event_type="Note On" control="6" value="127" />
        <Off channel="1" event_type="Note Off" control="6" value="0" />
    </Output>
    <Output name="Key Lock Button B">
        <On channel="2" event_type="Note On" control="6" value="127" />
        <Off channel="2" event_type="Note Off" control="6" value="0" />
    </Output>
    <Output name="Eject Button B">
        <On channel="2" event_type="Note On" control="1" value="127" />
        <Off channel="2" event_type="Note Off" control="1" value="0" />
    </Output>
    <Output name="Auto Loop Button A">
        <On channel="1" event_type="Note On" control="29" value="127" />
        <Off channel="1" event_type="Note Off" control="29" value="0" />
    </Output>
    <Output name="Loop In Adjust Button A">
        <On channel="1" event_type="Note On" control="55" value="127" />
        <Off channel="1" event_type="Note Off" control="55" value="0" />
    </Output>
    <Output name="Loop Out Adjust Button A">
        <On channel="1" event_type="Note On" control="57" value="127" />
        <Off channel="1" event_type="Note Off" control="57" value="0" />
    </Output>
    <Output name="Reloop Button A">
        <On channel="1" event_type="Note On" control="64" value="127" />
        <Off channel="1" event_type="Note Off" control="64" value="0" />
    </Output>
    <Output name="Loop Button A">
        <On channel="1" event_type="Note On" control="104" value="127" />
        <Off channel="1" event_type="Note Off" control="104" value="0" />
    </Output>
    <Output name="Loop Button B">
        <On channel="2" event_type="Note On" control="104" value="127" />
        <Off channel="2" event_type="Note Off" control="104" value="0" />
    </Output>
    <Output name="Rewind A">
        <On channel="1" event_type="Note On" control="17" value="127" />
        <Off channel="1" event_type="Note Off" control="17" value="0" />
    </Output>
    <Output name="Fast Forward A">
        <On channel="1" event_type="Note On" control="16" value="127" />
        <Off channel="1" event_type="Note Off" control="16" value="0" />
    </Output>
    <Output name="Previous Track A">
        <On channel="1" event_type="Note On" control="13" value="127" />
        <Off channel="1" event_type="Note Off" control="13" value="0" />
    </Output>
    <Output name="Next Track A">
        <On channel="1" event_type="Note On" control="12" value="127" />
        <Off channel="1" event_type="Note Off" control="12" value="0" />
    </Output>
    <Output name="Relative Mode Button A">
        <On channel="1" event_type="Note On" control="96" value="127" />
        <Off channel="1" event_type="Note Off" control="96" value="0" />
    </Output>
    <Output name="Trigger Cue Point Button A2">
        <On channel="1" event_type="Note On" control="25" value="127" />
        <Off channel="1" event_type="Note Off" control="25" value="0" />
    </Output>
    <Output name="Trigger Cue Point Button A3">
        <On channel="1" event_type="Note On" control="32" value="127" />
        <Off channel="1" event_type="Note Off" control="32" value="0" />
    </Output>
    <Output name="Eject Button A">
        <On channel="1" event_type="Note On" control="1" value="127" />
        <Off channel="1" event_type="Note Off" control="1" value="0" />
    </Output>
    <Output name="Trigger Cue Point Button A1">
        <On channel="1" event_type="Note On" control="24" value="127" />
        <Off channel="1" event_type="Note Off" control="24" value="0" />
    </Output>
    <Output name="Trigger Cue Point Button A0">
        <On channel="1" event_type="Note On" control="23" value="127" />
        <Off channel="1" event_type="Note Off" control="23" value="0" />
    </Output>
    <Output name="Set Cue Point Button A0">
        <On channel="2" event_type="Note On" control="24" value="127" />
        <Off channel="2" event_type="Note Off" control="24" value="0" />
    </Output>
    <Output name="Set Cue Point Button A1">
        <On channel="2" event_type="Note On" control="20" value="127" />
        <Off channel="2" event_type="Note Off" control="20" value="0" />
    </Output>
    <Output name="Set Cue Point Button A2">
        <On channel="2" event_type="Note On" control="16" value="127" />
        <Off channel="2" event_type="Note Off" control="16" value="0" />
    </Output>
    <Output name="Set Cue Point Button A4">
        <On channel="2" event_type="Note On" control="13" value="127" />
        <Off channel="2" event_type="Note Off" control="13" value="0" />
    </Output>
    <Output name="Sample Player Master Mute">
        <On channel="3" event_type="Note On" control="23" value="127" />
        <Off channel="3" event_type="Note Off" control="23" value="0" />
    </Output>
    <Output name="Censor Button A">
        <On channel="1" event_type="Note On" control="22" value="127" />
        <Off channel="1" event_type="Note Off" control="22" value="0" />
    </Output>
    <Output name="Censor Button B">
        <On channel="1" event_type="Note On" control="14" value="127" />
        <Off channel="1" event_type="Note Off" control="14" value="0" />
    </Output>
    <Output name="Auto Loop Button B">
        <On channel="1" event_type="Note On" control="23" value="127" />
        <Off channel="1" event_type="Note Off" control="23" value="0" />
    </Output>
    <Output name="Loop Roll Button A">
        <On channel="1" event_type="Note On" control="22" value="127" />
        <Off channel="1" event_type="Note Off" control="22" value="0" />
    </Output>
    <Output name="Loop Roll Button B">
        <On channel="1" event_type="Note On" control="14" value="127" />
        <Off channel="1" event_type="Note Off" control="14" value="0" />
    </Output>
    <Output name="Clear Loop Button A">
        <On channel="2" event_type="Note On" control="27" value="127" />
        <Off channel="2" event_type="Note Off" control="27" value="0" />
    </Output>
    <Output name="Clear Loop Button B">
        <On channel="2" event_type="Note On" control="19" value="127" />
        <Off channel="2" event_type="Note Off" control="19" value="0" />
    </Output>
    <Output name="Reloop Button B">
        <On channel="2" event_type="Note On" control="16" value="127" />
        <Off channel="2" event_type="Note Off" control="16" value="0" />
    </Output>
    <Output name="Set Cue Point Button B0">
        <On channel="1" event_type="Note On" control="16" value="127" />
        <Off channel="1" event_type="Note Off" control="16" value="0" />
    </Output>
    <Output name="Set Cue Point Button B1">
        <On channel="1" event_type="Note On" control="17" value="127" />
        <Off channel="1" event_type="Note Off" control="17" value="0" />
    </Output>
    <Output name="Set Cue Point Button B2">
        <On channel="1" event_type="Note On" control="18" value="127" />
        <Off channel="1" event_type="Note Off" control="18" value="0" />
    </Output>
    <Output name="Set Cue Point Button B3">
        <On channel="1" event_type="Note On" control="19" value="127" />
        <Off channel="1" event_type="Note Off" control="19" value="0" />
    </Output>
    <Output name="Set Cue Point Button B4">
        <On channel="1" event_type="Note On" control="12" value="127" />
        <Off channel="1" event_type="Note Off" control="12" value="0" />
    </Output>
    <Output name="Set Cue Left Button">
        <On channel="1" event_type="Note On" control="22" value="127" />
        <Off channel="1" event_type="Note Off" control="22" value="0" />
    </Output>
    <Output name="Jump Temp Cue Left Button">
        <On channel="1" event_type="Note On" control="23" value="127" />
        <Off channel="1" event_type="Note Off" control="23" value="0" />
    </Output>
    <Output name="Set Cue Right Button">
        <On channel="1" event_type="Note On" control="14" value="127" />
        <Off channel="1" event_type="Note Off" control="14" value="0" />
    </Output>
    <Output name="Jump Temp Cue Right Button">
        <On channel="1" event_type="Note On" control="15" value="127" />
        <Off channel="1" event_type="Note Off" control="15" value="0" />
    </Output>
    <Output name="Set Temp Cue Left Button">
        <On channel="1" event_type="Note On" control="22" value="127" />
        <Off channel="1" event_type="Note Off" control="22" value="0" />
    </Output>
    <Output name="Set Temp Cue Right Button">
        <On channel="1" event_type="Note On" control="14" value="127" />
        <Off channel="1" event_type="Note Off" control="14" value="0" />
    </Output>
    <Output name="Sample Player Play 1">
        <On channel="3" event_type="Note On" control="16" value="127" />
        <Off channel="3" event_type="Note Off" control="16" value="0" />
    </Output>
    <Output name="Sample Player Play 2">
        <On channel="3" event_type="Note On" control="17" value="127" />
        <Off channel="3" event_type="Note Off" control="17" value="0" />
    </Output>
    <Output name="Sample Player Play 3">
        <On channel="3" event_type="Note On" control="18" value="127" />
        <Off channel="3" event_type="Note Off" control="18" value="0" />
    </Output>
    <Output name="Sample Player Play 4">
        <On channel="3" event_type="Note On" control="19" value="127" />
        <Off channel="3" event_type="Note Off" control="19" value="0" />
    </Output>
    <Output name="Sample Player Play 5">
        <On channel="3" event_type="Note On" control="12" value="127" />
        <Off channel="3" event_type="Note Off" control="12" value="0" />
    </Output>
    <Output name="Sample Player Play 6">
        <On channel="3" event_type="Note On" control="13" value="127" />
        <Off channel="3" event_type="Note Off" control="13" value="0" />
    </Output>
    <Output name="Sample Player Bank A Button">
        <On channel="3" event_type="Note On" control="24" value="127" />
        <Off channel="3" event_type="Note Off" control="24" value="0" />
    </Output>
    <Output name="Sample Player Bank B Button">
        <On channel="3" event_type="Note On" control="25" value="127" />
        <Off channel="3" event_type="Note Off" control="25" value="0" />
    </Output>
    <Output name="Sample Player Bank C Button">
        <On channel="3" event_type="Note On" control="26" value="127" />
        <Off channel="3" event_type="Note Off" control="26" value="0" />
    </Output>
    <Output name="Sample Player Bank D Button">
        <On channel="3" event_type="Note On" control="27" value="127" />
        <Off channel="3" event_type="Note Off" control="27" value="0" />
    </Output>
    <Output name="Sample Player Output L">
        <On channel="3" event_type="Note On" control="20" value="127" />
        <Off channel="3" event_type="Note Off" control="20" value="0" />
    </Output>
    <Output name="Sample Player Output M">
        <On channel="3" event_type="Note On" control="21" value="127" />
        <Off channel="3" event_type="Note Off" control="21" value="0" />
    </Output>
    <Output name="Sample Player Output R">
        <On channel="3" event_type="Note On" control="22" value="127" />
        <Off channel="3" event_type="Note Off" control="22" value="0" />
    </Output>
    <Output name="Loop In Adjust Button B">
        <On channel="2" event_type="Note On" control="12" value="127" />
        <Off channel="2" event_type="Note Off" control="12" value="0" />
    </Output>
    <Output name="Loop Out Adjust Button B">
        <On channel="2" event_type="Note On" control="13" value="127" />
        <Off channel="2" event_type="Note Off" control="13" value="0" />
    </Output>
    <Output name="Next Loop Button A">
        <On channel="2" event_type="Note On" control="23" value="127" />
        <Off channel="2" event_type="Note Off" control="23" value="0" />
    </Output>
    <Output name="Prev Loop Button B">
        <On channel="2" event_type="Note On" control="14" value="127" />
        <Off channel="2" event_type="Note Off" control="14" value="0" />
    </Output>
    <Output name="Next Loop Button B">
        <On channel="2" event_type="Note On" control="15" value="127" />
        <Off channel="2" event_type="Note Off" control="15" value="0" />
    </Output>
    <Output name="Auto Loop Save or Lock Container A">
        <On channel="2" event_type="Note On" control="27" value="127" />
        <Off channel="2" event_type="Note Off" control="27" value="0" />
    </Output>
    <Output name="Auto Loop Save or Lock Container B">
        <On channel="2" event_type="Note On" control="27" value="127" />
        <Off channel="2" event_type="Note Off" control="27" value="0" />
    </Output>
    <Output name="Auto Loop Sixteenth Button A">
        <On channel="4" event_type="Note On" control="24" value="127" />
        <Off channel="4" event_type="Note Off" control="24" value="0" />
    </Output>
    <Output name="Auto Loop Eighth Button A">
        <On channel="4" event_type="Note On" control="25" value="127" />
        <Off channel="4" event_type="Note Off" control="25" value="0" />
    </Output>
    <Output name="Auto Loop Eight Button A">
        <On channel="4" event_type="Note On" control="23" value="127" />
        <Off channel="4" event_type="Note Off" control="23" value="0" />
    </Output>
    <Output name="Auto Loop Four Button A">
        <On channel="4" event_type="Note On" control="22" value="127" />
        <Off channel="4" event_type="Note Off" control="22" value="0" />
    </Output>
    <Output name="Auto Loop Two Button A">
        <On channel="4" event_type="Note On" control="21" value="127" />
        <Off channel="4" event_type="Note Off" control="21" value="0" />
    </Output>
    <Output name="Auto Loop One Button A">
        <On channel="4" event_type="Note On" control="20" value="127" />
        <Off channel="4" event_type="Note Off" control="20" value="0" />
    </Output>
    <Output name="Auto Loop Fourth Button A">
        <On channel="4" event_type="Note On" control="26" value="127" />
        <Off channel="4" event_type="Note Off" control="26" value="0" />
    </Output>
    <Output name="Auto Loop Half Button A">
        <On channel="4" event_type="Note On" control="27" value="127" />
        <Off channel="4" event_type="Note Off" control="27" value="0" />
    </Output>
    <Output name="Auto Loop Sixteenth Button B">
        <On channel="4" event_type="Note On" control="16" value="127" />
        <Off channel="4" event_type="Note Off" control="16" value="0" />
    </Output>
    <Output name="Auto Loop Eighth Button B">
        <On channel="4" event_type="Note On" control="17" value="127" />
        <Off channel="4" event_type="Note Off" control="17" value="0" />
    </Output>
    <Output name="Auto Loop Fourth Button B">
        <On channel="4" event_type="Note On" control="18" value="127" />
        <Off channel="4" event_type="Note Off" control="18" value="0" />
    </Output>
    <Output name="Auto Loop Half Button B">
        <On channel="4" event_type="Note On" control="19" value="127" />
        <Off channel="4" event_type="Note Off" control="19" value="0" />
    </Output>
    <Output name="Auto Loop One Button B">
        <On channel="4" event_type="Note On" control="12" value="127" />
        <Off channel="4" event_type="Note Off" control="12" value="0" />
    </Output>
    <Output name="Auto Loop Two Button B">
        <On channel="4" event_type="Note On" control="13" value="127" />
        <Off channel="4" event_type="Note Off" control="13" value="0" />
    </Output>
    <Output name="Auto Loop Eight Button B">
        <On channel="4" event_type="Note On" control="15" value="127" />
        <Off channel="4" event_type="Note Off" control="15" value="0" />
    </Output>
    <Output name="Auto Loop Four Button B">
        <On channel="4" event_type="Note On" control="14" value="127" />
        <Off channel="4" event_type="Note Off" control="14" value="0" />
    </Output>
    <Output name="Trigger Cue Point Button B0">
        <On channel="1" event_type="Note On" control="16" value="127" />
        <Off channel="1" event_type="Note Off" control="16" value="0" />
    </Output>
    <Output name="Trigger Cue Point Button B1">
        <On channel="1" event_type="Note On" control="17" value="127" />
        <Off channel="1" event_type="Note Off" control="17" value="0" />
    </Output>
    <Output name="Trigger Cue Point Button B2">
        <On channel="1" event_type="Note On" control="18" value="127" />
        <Off channel="1" event_type="Note Off" control="18" value="0" />
    </Output>
    <Output name="Trigger Cue Point Button B3">
        <On channel="1" event_type="Note On" control="19" value="127" />
        <Off channel="1" event_type="Note Off" control="19" value="0" />
    </Output>
    <Output name="Trigger Cue Point Button B4">
        <On channel="1" event_type="Note On" control="12" value="127" />
        <Off channel="1" event_type="Note Off" control="12" value="0" />
    </Output>
    <Output name="Prev Loop Button A">
        <On channel="2" event_type="Note On" control="22" value="127" />
        <Off channel="2" event_type="Note Off" control="22" value="0" />
    </Output>
    <Output name="Show Recording Widget Button">
        <On channel="1" event_type="Note On" control="68" value="127" />
        <Off channel="1" event_type="Note Off" control="68" value="0" />
    </Output>
    <Output name="Trigger Cue Point Button A4">
        <On channel="1" event_type="Note On" control="115" value="127" />
        <Off channel="1" event_type="Note Off" control="115" value="0" />
    </Output>
    <Output name="Key Lock Button A">
        <On channel="1" event_type="Note On" control="6" value="127" />
        <Off channel="1" event_type="Note Off" control="6" value="0" />
    </Output>
    <Output name="Key Lock Button B">
        <On channel="2" event_type="Note On" control="6" value="127" />
        <Off channel="2" event_type="Note Off" control="6" value="0" />
    </Output>
    <Output name="Eject Button B">
        <On channel="2" event_type="Note On" control="1" value="127" />
        <Off channel="2" event_type="Note Off" control="1" value="0" />
    </Output>
    <Output name="Auto Loop Button A">
        <On channel="1" event_type="Note On" control="29" value="127" />
        <Off channel="1" event_type="Note Off" control="29" value="0" />
    </Output>
    <Output name="Loop In Adjust Button A">
        <On channel="1" event_type="Note On" control="55" value="127" />
        <Off channel="1" event_type="Note Off" control="55" value="0" />
    </Output>
    <Output name="Loop Out Adjust Button A">
        <On channel="1" event_type="Note On" control="57" value="127" />
        <Off channel="1" event_type="Note Off" control="57" value="0" />
    </Output>
    <Output name="Reloop Button A">
        <On channel="1" event_type="Note On" control="64" value="127" />
        <Off channel="1" event_type="Note Off" control="64" value="0" />
    </Output>
    <Output name="Loop Button A">
        <On channel="1" event_type="Note On" control="104" value="127" />
        <Off channel="1" event_type="Note Off" control="104" value="0" />
    </Output>
    <Output name="Loop Button B">
        <On channel="2" event_type="Note On" control="104" value="127" />
        <Off channel="2" event_type="Note Off" control="104" value="0" />
    </Output>
    <Output name="Rewind A">
        <On channel="1" event_type="Note On" control="17" value="127" />
        <Off channel="1" event_type="Note Off" control="17" value="0" />
    </Output>
    <Output name="Fast Forward A">
        <On channel="1" event_type="Note On" control="16" value="127" />
        <Off channel="1" event_type="Note Off" control="16" value="0" />
    </Output>
    <Output name="Previous Track A">
        <On channel="1" event_type="Note On" control="13" value="127" />
        <Off channel="1" event_type="Note Off" control="13" value="0" />
    </Output>
    <Output name="Next Track A">
        <On channel="1" event_type="Note On" control="12" value="127" />
        <Off channel="1" event_type="Note Off" control="12" value="0" />
    </Output>
    <Output name="Relative Mode Button A">
        <On channel="1" event_type="Note On" control="96" value="127" />
        <Off channel="1" event_type="Note Off" control="96" value="0" />
    </Output>
    <Output name="Trigger Cue Point Button A2">
        <On channel="1" event_type="Note On" control="25" value="127" />
        <Off channel="1" event_type="Note Off" control="25" value="0" />
    </Output>
    <Output name="Trigger Cue Point Button A3">
        <On channel="1" event_type="Note On" control="32" value="127" />
        <Off channel="1" event_type="Note Off" control="32" value="0" />
    </Output>
    <Output name="Eject Button A">
        <On channel="1" event_type="Note On" control="1" value="127" />
        <Off channel="1" event_type="Note Off" control="1" value="0" />
    </Output>
    <Output name="Trigger Cue Point Button A1">
        <On channel="1" event_type="Note On" control="24" value="127" />
        <Off channel="1" event_type="Note Off" control="24" value="0" />
    </Output>
    <Output name="Trigger Cue Point Button A0">
        <On channel="1" event_type="Note On" control="23" value="127" />
        <Off channel="1" event_type="Note Off" control="23" value="0" />
    </Output>
    <Output name="Set Cue Point Button A0">
        <On channel="2" event_type="Note On" control="24" value="127" />
        <Off channel="2" event_type="Note Off" control="24" value="0" />
    </Output>
    <Output name="Set Cue Point Button A1">
        <On channel="2" event_type="Note On" control="20" value="127" />
        <Off channel="2" event_type="Note Off" control="20" value="0" />
    </Output>
    <Output name="Set Cue Point Button A2">
        <On channel="2" event_type="Note On" control="16" value="127" />
        <Off channel="2" event_type="Note Off" control="16" value="0" />
    </Output>
    <Output name="Set Cue Point Button A4">
        <On channel="2" event_type="Note On" control="13" value="127" />
        <Off channel="2" event_type="Note Off" control="13" value="0" />
    </Output>
    <Output name="Sample Player Master Mute">
        <On channel="3" event_type="Note On" control="23" value="127" />
        <Off channel="3" event_type="Note Off" control="23" value="0" />
    </Output>
    <Output name="Censor Button A">
        <On channel="1" event_type="Note On" control="22" value="127" />
        <Off channel="1" event_type="Note Off" control="22" value="0" />
    </Output>
    <Output name="Censor Button B">
        <On channel="1" event_type="Note On" control="14" value="127" />
        <Off channel="1" event_type="Note Off" control="14" value="0" />
    </Output>
    <Output name="Auto Loop Button B">
        <On channel="1" event_type="Note On" control="23" value="127" />
        <Off channel="1" event_type="Note Off" control="23" value="0" />
    </Output>
    <Output name="Loop Roll Button A">
        <On channel="1" event_type="Note On" control="22" value="127" />
        <Off channel="1" event_type="Note Off" control="22" value="0" />
    </Output>
    <Output name="Loop Roll Button B">
        <On channel="1" event_type="Note On" control="14" value="127" />
        <Off channel="1" event_type="Note Off" control="14" value="0" />
    </Output>
    <Output name="Clear Loop Button A">
        <On channel="2" event_type="Note On" control="27" value="127" />
        <Off channel="2" event_type="Note Off" control="27" value="0" />
    </Output>
    <Output name="Clear Loop Button B">
        <On channel="2" event_type="Note On" control="19" value="127" />
        <Off channel="2" event_type="Note Off" control="19" value="0" />
    </Output>
    <Output name="Reloop Button B">
        <On channel="2" event_type="Note On" control="16" value="127" />
        <Off channel="2" event_type="Note Off" control="16" value="0" />
    </Output>
    <Output name="Set Cue Point Button B0">
        <On channel="1" event_type="Note On" control="16" value="127" />
        <Off channel="1" event_type="Note Off" control="16" value="0" />
    </Output>
    <Output name="Set Cue Point Button B1">
        <On channel="1" event_type="Note On" control="17" value="127" />
        <Off channel="1" event_type="Note Off" control="17" value="0" />
    </Output>
    <Output name="Set Cue Point Button B2">
        <On channel="1" event_type="Note On" control="18" value="127" />
        <Off channel="1" event_type="Note Off" control="18" value="0" />
    </Output>
    <Output name="Set Cue Point Button B3">
        <On channel="1" event_type="Note On" control="19" value="127" />
        <Off channel="1" event_type="Note Off" control="19" value="0" />
    </Output>
    <Output name="Set Cue Point Button B4">
        <On channel="1" event_type="Note On" control="12" value="127" />
        <Off channel="1" event_type="Note Off" control="12" value="0" />
    </Output>
    <Output name="Set Cue Left Button">
        <On channel="1" event_type="Note On" control="22" value="127" />
        <Off channel="1" event_type="Note Off" control="22" value="0" />
    </Output>
    <Output name="Jump Temp Cue Left Button">
        <On channel="1" event_type="Note On" control="23" value="127" />
        <Off channel="1" event_type="Note Off" control="23" value="0" />
    </Output>
    <Output name="Set Cue Right Button">
        <On channel="1" event_type="Note On" control="14" value="127" />
        <Off channel="1" event_type="Note Off" control="14" value="0" />
    </Output>
    <Output name="Jump Temp Cue Right Button">
        <On channel="1" event_type="Note On" control="15" value="127" />
        <Off channel="1" event_type="Note Off" control="15" value="0" />
    </Output>
    <Output name="Set Temp Cue Left Button">
        <On channel="1" event_type="Note On" control="22" value="127" />
        <Off channel="1" event_type="Note Off" control="22" value="0" />
    </Output>
    <Output name="Set Temp Cue Right Button">
        <On channel="1" event_type="Note On" control="14" value="127" />
        <Off channel="1" event_type="Note Off" control="14" value="0" />
    </Output>
    <Output name="Sample Player Play 1">
        <On channel="3" event_type="Note On" control="16" value="127" />
        <Off channel="3" event_type="Note Off" control="16" value="0" />
    </Output>
    <Output name="Sample Player Play 2">
        <On channel="3" event_type="Note On" control="17" value="127" />
        <Off channel="3" event_type="Note Off" control="17" value="0" />
    </Output>
    <Output name="Sample Player Play 3">
        <On channel="3" event_type="Note On" control="18" value="127" />
        <Off channel="3" event_type="Note Off" control="18" value="0" />
    </Output>
    <Output name="Sample Player Play 4">
        <On channel="3" event_type="Note On" control="19" value="127" />
        <Off channel="3" event_type="Note Off" control="19" value="0" />
    </Output>
    <Output name="Sample Player Play 5">
        <On channel="3" event_type="Note On" control="12" value="127" />
        <Off channel="3" event_type="Note Off" control="12" value="0" />
    </Output>
    <Output name="Sample Player Play 6">
        <On channel="3" event_type="Note On" control="13" value="127" />
        <Off channel="3" event_type="Note Off" control="13" value="0" />
    </Output>
    <Output name="Sample Player Bank A Button">
        <On channel="3" event_type="Note On" control="24" value="127" />
        <Off channel="3" event_type="Note Off" control="24" value="0" />
    </Output>
    <Output name="Sample Player Bank B Button">
        <On channel="3" event_type="Note On" control="25" value="127" />
        <Off channel="3" event_type="Note Off" control="25" value="0" />
    </Output>
    <Output name="Sample Player Bank C Button">
        <On channel="3" event_type="Note On" control="26" value="127" />
        <Off channel="3" event_type="Note Off" control="26" value="0" />
    </Output>
    <Output name="Sample Player Bank D Button">
        <On channel="3" event_type="Note On" control="27" value="127" />
        <Off channel="3" event_type="Note Off" control="27" value="0" />
    </Output>
    <Output name="Sample Player Output L">
        <On channel="3" event_type="Note On" control="20" value="127" />
        <Off channel="3" event_type="Note Off" control="20" value="0" />
    </Output>
    <Output name="Sample Player Output M">
        <On channel="3" event_type="Note On" control="21" value="127" />
        <Off channel="3" event_type="Note Off" control="21" value="0" />
    </Output>
    <Output name="Sample Player Output R">
        <On channel="3" event_type="Note On" control="22" value="127" />
        <Off channel="3" event_type="Note Off" control="22" value="0" />
    </Output>
    <Output name="Loop In Adjust Button B">
        <On channel="2" event_type="Note On" control="12" value="127" />
        <Off channel="2" event_type="Note Off" control="12" value="0" />
    </Output>
    <Output name="Loop Out Adjust Button B">
        <On channel="2" event_type="Note On" control="13" value="127" />
        <Off channel="2" event_type="Note Off" control="13" value="0" />
    </Output>
    <Output name="Next Loop Button A">
        <On channel="2" event_type="Note On" control="23" value="127" />
        <Off channel="2" event_type="Note Off" control="23" value="0" />
    </Output>
    <Output name="Prev Loop Button B">
        <On channel="2" event_type="Note On" control="14" value="127" />
        <Off channel="2" event_type="Note Off" control="14" value="0" />
    </Output>
    <Output name="Next Loop Button B">
        <On channel="2" event_type="Note On" control="15" value="127" />
        <Off channel="2" event_type="Note Off" control="15" value="0" />
    </Output>
    <Output name="Auto Loop Save or Lock Container A">
        <On channel="2" event_type="Note On" control="27" value="127" />
        <Off channel="2" event_type="Note Off" control="27" value="0" />
    </Output>
    <Output name="Auto Loop Save or Lock Container B">
        <On channel="2" event_type="Note On" control="27" value="127" />
        <Off channel="2" event_type="Note Off" control="27" value="0" />
    </Output>
    <Output name="Auto Loop Sixteenth Button A">
        <On channel="4" event_type="Note On" control="24" value="127" />
        <Off channel="4" event_type="Note Off" control="24" value="0" />
    </Output>
    <Output name="Auto Loop Eighth Button A">
        <On channel="4" event_type="Note On" control="25" value="127" />
        <Off channel="4" event_type="Note Off" control="25" value="0" />
    </Output>
    <Output name="Auto Loop Eight Button A">
        <On channel="4" event_type="Note On" control="23" value="127" />
        <Off channel="4" event_type="Note Off" control="23" value="0" />
    </Output>
    <Output name="Auto Loop Four Button A">
        <On channel="4" event_type="Note On" control="22" value="127" />
        <Off channel="4" event_type="Note Off" control="22" value="0" />
    </Output>
    <Output name="Auto Loop Two Button A">
        <On channel="4" event_type="Note On" control="21" value="127" />
        <Off channel="4" event_type="Note Off" control="21" value="0" />
    </Output>
    <Output name="Auto Loop One Button A">
        <On channel="4" event_type="Note On" control="20" value="127" />
        <Off channel="4" event_type="Note Off" control="20" value="0" />
    </Output>
    <Output name="Auto Loop Fourth Button A">
        <On channel="4" event_type="Note On" control="26" value="127" />
        <Off channel="4" event_type="Note Off" control="26" value="0" />
    </Output>
    <Output name="Auto Loop Half Button A">
        <On channel="4" event_type="Note On" control="27" value="127" />
        <Off channel="4" event_type="Note Off" control="27" value="0" />
    </Output>
    <Output name="Auto Loop Sixteenth Button B">
        <On channel="4" event_type="Note On" control="16" value="127" />
        <Off channel="4" event_type="Note Off" control="16" value="0" />
    </Output>
    <Output name="Auto Loop Eighth Button B">
        <On channel="4" event_type="Note On" control="17" value="127" />
        <Off channel="4" event_type="Note Off" control="17" value="0" />
    </Output>
    <Output name="Auto Loop Fourth Button B">
        <On channel="4" event_type="Note On" control="18" value="127" />
        <Off channel="4" event_type="Note Off" control="18" value="0" />
    </Output>
    <Output name="Auto Loop Half Button B">
        <On channel="4" event_type="Note On" control="19" value="127" />
        <Off channel="4" event_type="Note Off" control="19" value="0" />
    </Output>
    <Output name="Auto Loop One Button B">
        <On channel="4" event_type="Note On" control="12" value="127" />
        <Off channel="4" event_type="Note Off" control="12" value="0" />
    </Output>
    <Output name="Auto Loop Two Button B">
        <On channel="4" event_type="Note On" control="13" value="127" />
        <Off channel="4" event_type="Note Off" control="13" value="0" />
    </Output>
    <Output name="Auto Loop Eight Button B">
        <On channel="4" event_type="Note On" control="15" value="127" />
        <Off channel="4" event_type="Note Off" control="15" value="0" />
    </Output>
    <Output name="Auto Loop Four Button B">
        <On channel="4" event_type="Note On" control="14" value="127" />
        <Off channel="4" event_type="Note Off" control="14" value="0" />
    </Output>
    <Output name="Trigger Cue Point Button B0">
        <On channel="1" event_type="Note On" control="16" value="127" />
        <Off channel="1" event_type="Note Off" control="16" value="0" />
    </Output>
    <Output name="Trigger Cue Point Button B1">
        <On channel="1" event_type="Note On" control="17" value="127" />
        <Off channel="1" event_type="Note Off" control="17" value="0" />
    </Output>
    <Output name="Trigger Cue Point Button B2">
        <On channel="1" event_type="Note On" control="18" value="127" />
        <Off channel="1" event_type="Note Off" control="18" value="0" />
    </Output>
    <Output name="Trigger Cue Point Button B3">
        <On channel="1" event_type="Note On" control="19" value="127" />
        <Off channel="1" event_type="Note Off" control="19" value="0" />
    </Output>
    <Output name="Trigger Cue Point Button B4">
        <On channel="1" event_type="Note On" control="12" value="127" />
        <Off channel="1" event_type="Note Off" control="12" value="0" />
    </Output>
    <Output name="Prev Loop Button A">
        <On channel="2" event_type="Note On" control="22" value="127" />
        <Off channel="2" event_type="Note Off" control="22" value="0" />
    </Output>
    <Output name="Show Recording Widget Button">
        <On channel="1" event_type="Note On" control="68" value="127" />
        <Off channel="1" event_type="Note Off" control="68" value="0" />
    </Output>
    <Output name="Trigger Cue Point Button A4">
        <On channel="1" event_type="Note On" control="115" value="127" />
        <Off channel="1" event_type="Note Off" control="115" value="0" />
    </Output>
    <Output name="Key Lock Button A">
        <On channel="1" event_type="Note On" control="6" value="127" />
        <Off channel="1" event_type="Note Off" control="6" value="0" />
    </Output>
    <Output name="Key Lock Button B">
        <On channel="2" event_type="Note On" control="6" value="127" />
        <Off channel="2" event_type="Note Off" control="6" value="0" />
    </Output>
    <Output name="Eject Button B">
        <On channel="2" event_type="Note On" control="1" value="127" />
        <Off channel="2" event_type="Note Off" control="1" value="0" />
    </Output>
    <Output name="Auto Loop Button A">
        <On channel="1" event_type="Note On" control="29" value="127" />
        <Off channel="1" event_type="Note Off" control="29" value="0" />
    </Output>
    <Output name="Loop In Adjust Button A">
        <On channel="1" event_type="Note On" control="55" value="127" />
        <Off channel="1" event_type="Note Off" control="55" value="0" />
    </Output>
    <Output name="Loop Out Adjust Button A">
        <On channel="1" event_type="Note On" control="57" value="127" />
        <Off channel="1" event_type="Note Off" control="57" value="0" />
    </Output>
    <Output name="Reloop Button A">
        <On channel="1" event_type="Note On" control="64" value="127" />
        <Off channel="1" event_type="Note Off" control="64" value="0" />
    </Output>
    <Output name="Loop Button A">
        <On channel="1" event_type="Note On" control="104" value="127" />
        <Off channel="1" event_type="Note Off" control="104" value="0" />
    </Output>
    <Output name="Loop Button B">
        <On channel="2" event_type="Note On" control="104" value="127" />
        <Off channel="2" event_type="Note Off" control="104" value="0" />
    </Output>
    <Output name="Rewind A">
        <On channel="1" event_type="Note On" control="17" value="127" />
        <Off channel="1" event_type="Note Off" control="17" value="0" />
    </Output>
    <Output name="Fast Forward A">
        <On channel="1" event_type="Note On" control="16" value="127" />
        <Off channel="1" event_type="Note Off" control="16" value="0" />
    </Output>
    <Output name="Previous Track A">
        <On channel="1" event_type="Note On" control="13" value="127" />
        <Off channel="1" event_type="Note Off" control="13" value="0" />
    </Output>
    <Output name="Next Track A">
        <On channel="1" event_type="Note On" control="12" value="127" />
        <Off channel="1" event_type="Note Off" control="12" value="0" />
    </Output>
    <Output name="Relative Mode Button A">
        <On channel="1" event_type="Note On" control="96" value="127" />
        <Off channel="1" event_type="Note Off" control="96" value="0" />
    </Output>
    <Output name="Trigger Cue Point Button A2">
        <On channel="1" event_type="Note On" control="25" value="127" />
        <Off channel="1" event_type="Note Off" control="25" value="0" />
    </Output>
    <Output name="Trigger Cue Point Button A3">
        <On channel="1" event_type="Note On" control="32" value="127" />
        <Off channel="1" event_type="Note Off" control="32" value="0" />
    </Output>
    <Output name="Eject Button A">
        <On channel="1" event_type="Note On" control="1" value="127" />
        <Off channel="1" event_type="Note Off" control="1" value="0" />
    </Output>
    <Output name="Trigger Cue Point Button A1">
        <On channel="1" event_type="Note On" control="24" value="127" />
        <Off channel="1" event_type="Note Off" control="24" value="0" />
    </Output>
    <Output name="Trigger Cue Point Button A0">
        <On channel="1" event_type="Note On" control="23" value="127" />
        <Off channel="1" event_type="Note Off" control="23" value="0" />
    </Output>
    <Output name="Set Cue Point Button A0">
        <On channel="2" event_type="Note On" control="24" value="127" />
        <Off channel="2" event_type="Note Off" control="24" value="0" />
    </Output>
    <Output name="Set Cue Point Button A1">
        <On channel="2" event_type="Note On" control="20" value="127" />
        <Off channel="2" event_type="Note Off" control="20" value="0" />
    </Output>
    <Output name="Set Cue Point Button A2">
        <On channel="2" event_type="Note On" control="16" value="127" />
        <Off channel="2" event_type="Note Off" control="16" value="0" />
    </Output>
    <Output name="Set Cue Point Button A4">
        <On channel="2" event_type="Note On" control="13" value="127" />
        <Off channel="2" event_type="Note Off" control="13" value="0" />
    </Output>
    <Output name="Sample Player Master Mute">
        <On channel="3" event_type="Note On" control="23" value="127" />
        <Off channel="3" event_type="Note Off" control="23" value="0" />
    </Output>
    <Output name="Censor Button A">
        <On channel="1" event_type="Note On" control="22" value="127" />
        <Off channel="1" event_type="Note Off" control="22" value="0" />
    </Output>
    <Output name="Censor Button B">
        <On channel="1" event_type="Note On" control="14" value="127" />
        <Off channel="1" event_type="Note Off" control="14" value="0" />
    </Output>
    <Output name="Auto Loop Button B">
        <On channel="1" event_type="Note On" control="23" value="127" />
        <Off channel="1" event_type="Note Off" control="23" value="0" />
    </Output>
    <Output name="Loop Roll Button A">
        <On channel="1" event_type="Note On" control="22" value="127" />
        <Off channel="1" event_type="Note Off" control="22" value="0" />
    </Output>
    <Output name="Loop Roll Button B">
        <On channel="1" event_type="Note On" control="14" value="127" />
        <Off channel="1" event_type="Note Off" control="14" value="0" />
    </Output>
    <Output name="Clear Loop Button A">
        <On channel="2" event_type="Note On" control="27" value="127" />
        <Off channel="2" event_type="Note Off" control="27" value="0" />
    </Output>
    <Output name="Clear Loop Button B">
        <On channel="2" event_type="Note On" control="19" value="127" />
        <Off channel="2" event_type="Note Off" control="19" value="0" />
    </Output>
    <Output name="Reloop Button B">
        <On channel="2" event_type="Note On" control="16" value="127" />
        <Off channel="2" event_type="Note Off" control="16" value="0" />
    </Output>
    <Output name="Set Cue Point Button B0">
        <On channel="1" event_type="Note On" control="16" value="127" />
        <Off channel="1" event_type="Note Off" control="16" value="0" />
    </Output>
    <Output name="Set Cue Point Button B1">
        <On channel="1" event_type="Note On" control="17" value="127" />
        <Off channel="1" event_type="Note Off" control="17" value="0" />
    </Output>
    <Output name="Set Cue Point Button B2">
        <On channel="1" event_type="Note On" control="18" value="127" />
        <Off channel="1" event_type="Note Off" control="18" value="0" />
    </Output>
    <Output name="Set Cue Point Button B3">
        <On channel="1" event_type="Note On" control="19" value="127" />
        <Off channel="1" event_type="Note Off" control="19" value="0" />
    </Output>
    <Output name="Set Cue Point Button B4">
        <On channel="1" event_type="Note On" control="12" value="127" />
        <Off channel="1" event_type="Note Off" control="12" value="0" />
    </Output>
    <Output name="Set Cue Left Button">
        <On channel="1" event_type="Note On" control="22" value="127" />
        <Off channel="1" event_type="Note Off" control="22" value="0" />
    </Output>
    <Output name="Jump Temp Cue Left Button">
        <On channel="1" event_type="Note On" control="23" value="127" />
        <Off channel="1" event_type="Note Off" control="23" value="0" />
    </Output>
    <Output name="Set Cue Right Button">
        <On channel="1" event_type="Note On" control="14" value="127" />
        <Off channel="1" event_type="Note Off" control="14" value="0" />
    </Output>
    <Output name="Jump Temp Cue Right Button">
        <On channel="1" event_type="Note On" control="15" value="127" />
        <Off channel="1" event_type="Note Off" control="15" value="0" />
    </Output>
    <Output name="Set Temp Cue Left Button">
        <On channel="1" event_type="Note On" control="22" value="127" />
        <Off channel="1" event_type="Note Off" control="22" value="0" />
    </Output>
    <Output name="Set Temp Cue Right Button">
        <On channel="1" event_type="Note On" control="14" value="127" />
        <Off channel="1" event_type="Note Off" control="14" value="0" />
    </Output>
    <Output name="Sample Player Play 1">
        <On channel="3" event_type="Note On" control="16" value="127" />
        <Off channel="3" event_type="Note Off" control="16" value="0" />
    </Output>
    <Output name="Sample Player Play 2">
        <On channel="3" event_type="Note On" control="17" value="127" />
        <Off channel="3" event_type="Note Off" control="17" value="0" />
    </Output>
    <Output name="Sample Player Play 3">
        <On channel="3" event_type="Note On" control="18" value="127" />
        <Off channel="3" event_type="Note Off" control="18" value="0" />
    </Output>
    <Output name="Sample Player Play 4">
        <On channel="3" event_type="Note On" control="19" value="127" />
        <Off channel="3" event_type="Note Off" control="19" value="0" />
    </Output>
    <Output name="Sample Player Play 5">
        <On channel="3" event_type="Note On" control="12" value="127" />
        <Off channel="3" event_type="Note Off" control="12" value="0" />
    </Output>
    <Output name="Sample Player Play 6">
        <On channel="3" event_type="Note On" control="13" value="127" />
        <Off channel="3" event_type="Note Off" control="13" value="0" />
    </Output>
    <Output name="Sample Player Bank A Button">
        <On channel="3" event_type="Note On" control="24" value="127" />
        <Off channel="3" event_type="Note Off" control="24" value="0" />
    </Output>
    <Output name="Sample Player Bank B Button">
        <On channel="3" event_type="Note On" control="25" value="127" />
        <Off channel="3" event_type="Note Off" control="25" value="0" />
    </Output>
    <Output name="Sample Player Bank C Button">
        <On channel="3" event_type="Note On" control="26" value="127" />
        <Off channel="3" event_type="Note Off" control="26" value="0" />
    </Output>
    <Output name="Sample Player Bank D Button">
        <On channel="3" event_type="Note On" control="27" value="127" />
        <Off channel="3" event_type="Note Off" control="27" value="0" />
    </Output>
    <Output name="Sample Player Output L">
        <On channel="3" event_type="Note On" control="20" value="127" />
        <Off channel="3" event_type="Note Off" control="20" value="0" />
    </Output>
    <Output name="Sample Player Output M">
        <On channel="3" event_type="Note On" control="21" value="127" />
        <Off channel="3" event_type="Note Off" control="21" value="0" />
    </Output>
    <Output name="Sample Player Output R">
        <On channel="3" event_type="Note On" control="22" value="127" />
        <Off channel="3" event_type="Note Off" control="22" value="0" />
    </Output>
    <Output name="Loop In Adjust Button B">
        <On channel="2" event_type="Note On" control="12" value="127" />
        <Off channel="2" event_type="Note Off" control="12" value="0" />
    </Output>
    <Output name="Loop Out Adjust Button B">
        <On channel="2" event_type="Note On" control="13" value="127" />
        <Off channel="2" event_type="Note Off" control="13" value="0" />
    </Output>
    <Output name="Next Loop Button A">
        <On channel="2" event_type="Note On" control="23" value="127" />
        <Off channel="2" event_type="Note Off" control="23" value="0" />
    </Output>
    <Output name="Prev Loop Button B">
        <On channel="2" event_type="Note On" control="14" value="127" />
        <Off channel="2" event_type="Note Off" control="14" value="0" />
    </Output>
    <Output name="Next Loop Button B">
        <On channel="2" event_type="Note On" control="15" value="127" />
        <Off channel="2" event_type="Note Off" control="15" value="0" />
    </Output>
    <Output name="Auto Loop Save or Lock Container A">
        <On channel="2" event_type="Note On" control="27" value="127" />
        <Off channel="2" event_type="Note Off" control="27" value="0" />
    </Output>
    <Output name="Auto Loop Save or Lock Container B">
        <On channel="2" event_type="Note On" control="27" value="127" />
        <Off channel="2" event_type="Note Off" control="27" value="0" />
    </Output>
    <Output name="Auto Loop Sixteenth Button A">
        <On channel="4" event_type="Note On" control="24" value="127" />
        <Off channel="4" event_type="Note Off" control="24" value="0" />
    </Output>
    <Output name="Auto Loop Eighth Button A">
        <On channel="4" event_type="Note On" control="25" value="127" />
        <Off channel="4" event_type="Note Off" control="25" value="0" />
    </Output>
    <Output name="Auto Loop Eight Button A">
        <On channel="4" event_type="Note On" control="23" value="127" />
        <Off channel="4" event_type="Note Off" control="23" value="0" />
    </Output>
    <Output name="Auto Loop Four Button A">
        <On channel="4" event_type="Note On" control="22" value="127" />
        <Off channel="4" event_type="Note Off" control="22" value="0" />
    </Output>
    <Output name="Auto Loop Two Button A">
        <On channel="4" event_type="Note On" control="21" value="127" />
        <Off channel="4" event_type="Note Off" control="21" value="0" />
    </Output>
    <Output name="Auto Loop One Button A">
        <On channel="4" event_type="Note On" control="20" value="127" />
        <Off channel="4" event_type="Note Off" control="20" value="0" />
    </Output>
    <Output name="Auto Loop Fourth Button A">
        <On channel="4" event_type="Note On" control="26" value="127" />
        <Off channel="4" event_type="Note Off" control="26" value="0" />
    </Output>
    <Output name="Auto Loop Half Button A">
        <On channel="4" event_type="Note On" control="27" value="127" />
        <Off channel="4" event_type="Note Off" control="27" value="0" />
    </Output>
    <Output name="Auto Loop Sixteenth Button B">
        <On channel="4" event_type="Note On" control="16" value="127" />
        <Off channel="4" event_type="Note Off" control="16" value="0" />
    </Output>
    <Output name="Auto Loop Eighth Button B">
        <On channel="4" event_type="Note On" control="17" value="127" />
        <Off channel="4" event_type="Note Off" control="17" value="0" />
    </Output>
    <Output name="Auto Loop Fourth Button B">
        <On channel="4" event_type="Note On" control="18" value="127" />
        <Off channel="4" event_type="Note Off" control="18" value="0" />
    </Output>
    <Output name="Auto Loop Half Button B">
        <On channel="4" event_type="Note On" control="19" value="127" />
        <Off channel="4" event_type="Note Off" control="19" value="0" />
    </Output>
    <Output name="Auto Loop One Button B">
        <On channel="4" event_type="Note On" control="12" value="127" />
        <Off channel="4" event_type="Note Off" control="12" value="0" />
    </Output>
    <Output name="Auto Loop Two Button B">
        <On channel="4" event_type="Note On" control="13" value="127" />
        <Off channel="4" event_type="Note Off" control="13" value="0" />
    </Output>
    <Output name="Auto Loop Eight Button B">
        <On channel="4" event_type="Note On" control="15" value="127" />
        <Off channel="4" event_type="Note Off" control="15" value="0" />
    </Output>
    <Output name="Auto Loop Four Button B">
        <On channel="4" event_type="Note On" control="14" value="127" />
        <Off channel="4" event_type="Note Off" control="14" value="0" />
    </Output>
    <Output name="Trigger Cue Point Button B0">
        <On channel="1" event_type="Note On" control="16" value="127" />
        <Off channel="1" event_type="Note Off" control="16" value="0" />
    </Output>
    <Output name="Trigger Cue Point Button B1">
        <On channel="1" event_type="Note On" control="17" value="127" />
        <Off channel="1" event_type="Note Off" control="17" value="0" />
    </Output>
    <Output name="Trigger Cue Point Button B2">
        <On channel="1" event_type="Note On" control="18" value="127" />
        <Off channel="1" event_type="Note Off" control="18" value="0" />
    </Output>
    <Output name="Trigger Cue Point Button B3">
        <On channel="1" event_type="Note On" control="19" value="127" />
        <Off channel="1" event_type="Note Off" control="19" value="0" />
    </Output>
    <Output name="Trigger Cue Point Button B4">
        <On channel="1" event_type="Note On" control="12" value="127" />
        <Off channel="1" event_type="Note Off" control="12" value="0" />
    </Output>
    <Output name="Prev Loop Button A">
        <On channel="2" event_type="Note On" control="22" value="127" />
        <Off channel="2" event_type="Note Off" control="22" value="0" />
    </Output>
    <Output name="Show Recording Widget Button">
        <On channel="1" event_type="Note On" control="68" value="127" />
        <Off channel="1" event_type="Note Off" control="68" value="0" />
    </Output>
    <Output name="Trigger Cue Point Button A4">
        <On channel="1" event_type="Note On" control="115" value="127" />
        <Off channel="1" event_type="Note Off" control="115" value="0" />
    </Output>
    <Output name="Key Lock Button A">
        <On channel="1" event_type="Note On" control="6" value="127" />
        <Off channel="1" event_type="Note Off" control="6" value="0" />
    </Output>
    <Output name="Key Lock Button B">
        <On channel="2" event_type="Note On" control="6" value="127" />
        <Off channel="2" event_type="Note Off" control="6" value="0" />
    </Output>
    <Output name="Eject Button B">
        <On channel="2" event_type="Note On" control="1" value="127" />
        <Off channel="2" event_type="Note Off" control="1" value="0" />
    </Output>
    <Output name="Auto Loop Button A">
        <On channel="1" event_type="Note On" control="29" value="127" />
        <Off channel="1" event_type="Note Off" control="29" value="0" />
    </Output>
    <Output name="Loop In Adjust Button A">
        <On channel="1" event_type="Note On" control="55" value="127" />
        <Off channel="1" event_type="Note Off" control="55" value="0" />
    </Output>
    <Output name="Loop Out Adjust Button A">
        <On channel="1" event_type="Note On" control="57" value="127" />
        <Off channel="1" event_type="Note Off" control="57" value="0" />
    </Output>
    <Output name="Reloop Button A">
        <On channel="1" event_type="Note On" control="64" value="127" />
        <Off channel="1" event_type="Note Off" control="64" value="0" />
    </Output>
    <Output name="Loop Button A">
        <On channel="1" event_type="Note On" control="104" value="127" />
        <Off channel="1" event_type="Note Off" control="104" value="0" />
    </Output>
    <Output name="Loop Button B">
        <On channel="2" event_type="Note On" control="104" value="127" />
        <Off channel="2" event_type="Note Off" control="104" value="0" />
    </Output>
    <Output name="Rewind A">
        <On channel="1" event_type="Note On" control="17" value="127" />
        <Off channel="1" event_type="Note Off" control="17" value="0" />
    </Output>
    <Output name="Fast Forward A">
        <On channel="1" event_type="Note On" control="16" value="127" />
        <Off channel="1" event_type="Note Off" control="16" value="0" />
    </Output>
    <Output name="Previous Track A">
        <On channel="1" event_type="Note On" control="13" value="127" />
        <Off channel="1" event_type="Note Off" control="13" value="0" />
    </Output>
    <Output name="Next Track A">
        <On channel="1" event_type="Note On" control="12" value="127" />
        <Off channel="1" event_type="Note Off" control="12" value="0" />
    </Output>
    <Output name="Relative Mode Button A">
        <On channel="1" event_type="Note On" control="96" value="127" />
        <Off channel="1" event_type="Note Off" control="96" value="0" />
    </Output>
    <Output name="Trigger Cue Point Button A2">
        <On channel="1" event_type="Note On" control="25" value="127" />
        <Off channel="1" event_type="Note Off" control="25" value="0" />
    </Output>
    <Output name="Trigger Cue Point Button A3">
        <On channel="1" event_type="Note On" control="32" value="127" />
        <Off channel="1" event_type="Note Off" control="32" value="0" />
    </Output>
    <Output name="Eject Button A">
        <On channel="1" event_type="Note On" control="1" value="127" />
        <Off channel="1" event_type="Note Off" control="1" value="0" />
    </Output>
    <Output name="Trigger Cue Point Button A1">
        <On channel="1" event_type="Note On" control="24" value="127" />
        <Off channel="1" event_type="Note Off" control="24" value="0" />
    </Output>
    <Output name="Trigger Cue Point Button A0">
        <On channel="1" event_type="Note On" control="23" value="127" />
        <Off channel="1" event_type="Note Off" control="23" value="0" />
    </Output>
    <Output name="Set Cue Point Button A0">
        <On channel="2" event_type="Note On" control="24" value="127" />
        <Off channel="2" event_type="Note Off" control="24" value="0" />
    </Output>
    <Output name="Set Cue Point Button A1">
        <On channel="2" event_type="Note On" control="20" value="127" />
        <Off channel="2" event_type="Note Off" control="20" value="0" />
    </Output>
    <Output name="Set Cue Point Button A2">
        <On channel="2" event_type="Note On" control="16" value="127" />
        <Off channel="2" event_type="Note Off" control="16" value="0" />
    </Output>
    <Output name="Set Cue Point Button A4">
        <On channel="2" event_type="Note On" control="13" value="127" />
        <Off channel="2" event_type="Note Off" control="13" value="0" />
    </Output>
    <Output name="Sample Player Master Mute">
        <On channel="3" event_type="Note On" control="23" value="127" />
        <Off channel="3" event_type="Note Off" control="23" value="0" />
    </Output>
    <Output name="Censor Button A">
        <On channel="1" event_type="Note On" control="22" value="127" />
        <Off channel="1" event_type="Note Off" control="22" value="0" />
    </Output>
    <Output name="Censor Button B">
        <On channel="1" event_type="Note On" control="14" value="127" />
        <Off channel="1" event_type="Note Off" control="14" value="0" />
    </Output>
    <Output name="Auto Loop Button B">
        <On channel="1" event_type="Note On" control="23" value="127" />
        <Off channel="1" event_type="Note Off" control="23" value="0" />
    </Output>
    <Output name="Loop Roll Button A">
        <On channel="1" event_type="Note On" control="22" value="127" />
        <Off channel="1" event_type="Note Off" control="22" value="0" />
    </Output>
    <Output name="Loop Roll Button B">
        <On channel="1" event_type="Note On" control="14" value="127" />
        <Off channel="1" event_type="Note Off" control="14" value="0" />
    </Output>
    <Output name="Clear Loop Button A">
        <On channel="2" event_type="Note On" control="27" value="127" />
        <Off channel="2" event_type="Note Off" control="27" value="0" />
    </Output>
    <Output name="Clear Loop Button B">
        <On channel="2" event_type="Note On" control="19" value="127" />
        <Off channel="2" event_type="Note Off" control="19" value="0" />
    </Output>
    <Output name="Reloop Button B">
        <On channel="2" event_type="Note On" control="16" value="127" />
        <Off channel="2" event_type="Note Off" control="16" value="0" />
    </Output>
    <Output name="Set Cue Point Button B0">
        <On channel="1" event_type="Note On" control="16" value="127" />
        <Off channel="1" event_type="Note Off" control="16" value="0" />
    </Output>
    <Output name="Set Cue Point Button B1">
        <On channel="1" event_type="Note On" control="17" value="127" />
        <Off channel="1" event_type="Note Off" control="17" value="0" />
    </Output>
    <Output name="Set Cue Point Button B2">
        <On channel="1" event_type="Note On" control="18" value="127" />
        <Off channel="1" event_type="Note Off" control="18" value="0" />
    </Output>
    <Output name="Set Cue Point Button B3">
        <On channel="1" event_type="Note On" control="19" value="127" />
        <Off channel="1" event_type="Note Off" control="19" value="0" />
    </Output>
    <Output name="Set Cue Point Button B4">
        <On channel="1" event_type="Note On" control="12" value="127" />
        <Off channel="1" event_type="Note Off" control="12" value="0" />
    </Output>
    <Output name="Set Cue Left Button">
        <On channel="1" event_type="Note On" control="22" value="127" />
        <Off channel="1" event_type="Note Off" control="22" value="0" />
    </Output>
    <Output name="Jump Temp Cue Left Button">
        <On channel="1" event_type="Note On" control="23" value="127" />
        <Off channel="1" event_type="Note Off" control="23" value="0" />
    </Output>
    <Output name="Set Cue Right Button">
        <On channel="1" event_type="Note On" control="14" value="127" />
        <Off channel="1" event_type="Note Off" control="14" value="0" />
    </Output>
    <Output name="Jump Temp Cue Right Button">
        <On channel="1" event_type="Note On" control="15" value="127" />
        <Off channel="1" event_type="Note Off" control="15" value="0" />
    </Output>
    <Output name="Set Temp Cue Left Button">
        <On channel="1" event_type="Note On" control="22" value="127" />
        <Off channel="1" event_type="Note Off" control="22" value="0" />
    </Output>
    <Output name="Set Temp Cue Right Button">
        <On channel="1" event_type="Note On" control="14" value="127" />
        <Off channel="1" event_type="Note Off" control="14" value="0" />
    </Output>
    <Output name="Sample Player Play 1">
        <On channel="3" event_type="Note On" control="16" value="127" />
        <Off channel="3" event_type="Note Off" control="16" value="0" />
    </Output>
    <Output name="Sample Player Play 2">
        <On channel="3" event_type="Note On" control="17" value="127" />
        <Off channel="3" event_type="Note Off" control="17" value="0" />
    </Output>
    <Output name="Sample Player Play 3">
        <On channel="3" event_type="Note On" control="18" value="127" />
        <Off channel="3" event_type="Note Off" control="18" value="0" />
    </Output>
    <Output name="Sample Player Play 4">
        <On channel="3" event_type="Note On" control="19" value="127" />
        <Off channel="3" event_type="Note Off" control="19" value="0" />
    </Output>
    <Output name="Sample Player Play 5">
        <On channel="3" event_type="Note On" control="12" value="127" />
        <Off channel="3" event_type="Note Off" control="12" value="0" />
    </Output>
    <Output name="Sample Player Play 6">
        <On channel="3" event_type="Note On" control="13" value="127" />
        <Off channel="3" event_type="Note Off" control="13" value="0" />
    </Output>
    <Output name="Sample Player Bank A Button">
        <On channel="3" event_type="Note On" control="24" value="127" />
        <Off channel="3" event_type="Note Off" control="24" value="0" />
    </Output>
    <Output name="Sample Player Bank B Button">
        <On channel="3" event_type="Note On" control="25" value="127" />
        <Off channel="3" event_type="Note Off" control="25" value="0" />
    </Output>
    <Output name="Sample Player Bank C Button">
        <On channel="3" event_type="Note On" control="26" value="127" />
        <Off channel="3" event_type="Note Off" control="26" value="0" />
    </Output>
    <Output name="Sample Player Bank D Button">
        <On channel="3" event_type="Note On" control="27" value="127" />
        <Off channel="3" event_type="Note Off" control="27" value="0" />
    </Output>
    <Output name="Sample Player Output L">
        <On channel="3" event_type="Note On" control="20" value="127" />
        <Off channel="3" event_type="Note Off" control="20" value="0" />
    </Output>
    <Output name="Sample Player Output M">
        <On channel="3" event_type="Note On" control="21" value="127" />
        <Off channel="3" event_type="Note Off" control="21" value="0" />
    </Output>
    <Output name="Sample Player Output R">
        <On channel="3" event_type="Note On" control="22" value="127" />
        <Off channel="3" event_type="Note Off" control="22" value="0" />
    </Output>
    <Output name="Loop In Adjust Button B">
        <On channel="2" event_type="Note On" control="12" value="127" />
        <Off channel="2" event_type="Note Off" control="12" value="0" />
    </Output>
    <Output name="Loop Out Adjust Button B">
        <On channel="2" event_type="Note On" control="13" value="127" />
        <Off channel="2" event_type="Note Off" control="13" value="0" />
    </Output>
    <Output name="Next Loop Button A">
        <On channel="2" event_type="Note On" control="23" value="127" />
        <Off channel="2" event_type="Note Off" control="23" value="0" />
    </Output>
    <Output name="Prev Loop Button B">
        <On channel="2" event_type="Note On" control="14" value="127" />
        <Off channel="2" event_type="Note Off" control="14" value="0" />
    </Output>
    <Output name="Next Loop Button B">
        <On channel="2" event_type="Note On" control="15" value="127" />
        <Off channel="2" event_type="Note Off" control="15" value="0" />
    </Output>
    <Output name="Auto Loop Save or Lock Container A">
        <On channel="2" event_type="Note On" control="27" value="127" />
        <Off channel="2" event_type="Note Off" control="27" value="0" />
    </Output>
    <Output name="Auto Loop Save or Lock Container B">
        <On channel="2" event_type="Note On" control="27" value="127" />
        <Off channel="2" event_type="Note Off" control="27" value="0" />
    </Output>
    <Output name="Auto Loop Sixteenth Button A">
        <On channel="4" event_type="Note On" control="24" value="127" />
        <Off channel="4" event_type="Note Off" control="24" value="0" />
    </Output>
    <Output name="Auto Loop Eighth Button A">
        <On channel="4" event_type="Note On" control="25" value="127" />
        <Off channel="4" event_type="Note Off" control="25" value="0" />
    </Output>
    <Output name="Auto Loop Eight Button A">
        <On channel="4" event_type="Note On" control="23" value="127" />
        <Off channel="4" event_type="Note Off" control="23" value="0" />
    </Output>
    <Output name="Auto Loop Four Button A">
        <On channel="4" event_type="Note On" control="22" value="127" />
        <Off channel="4" event_type="Note Off" control="22" value="0" />
    </Output>
    <Output name="Auto Loop Two Button A">
        <On channel="4" event_type="Note On" control="21" value="127" />
        <Off channel="4" event_type="Note Off" control="21" value="0" />
    </Output>
    <Output name="Auto Loop One Button A">
        <On channel="4" event_type="Note On" control="20" value="127" />
        <Off channel="4" event_type="Note Off" control="20" value="0" />
    </Output>
    <Output name="Auto Loop Fourth Button A">
        <On channel="4" event_type="Note On" control="26" value="127" />
        <Off channel="4" event_type="Note Off" control="26" value="0" />
    </Output>
    <Output name="Auto Loop Half Button A">
        <On channel="4" event_type="Note On" control="27" value="127" />
        <Off channel="4" event_type="Note Off" control="27" value="0" />
    </Output>
    <Output name="Auto Loop Sixteenth Button B">
        <On channel="4" event_type="Note On" control="16" value="127" />
        <Off channel="4" event_type="Note Off" control="16" value="0" />
    </Output>
    <Output name="Auto Loop Eighth Button B">
        <On channel="4" event_type="Note On" control="17" value="127" />
        <Off channel="4" event_type="Note Off" control="17" value="0" />
    </Output>
    <Output name="Auto Loop Fourth Button B">
        <On channel="4" event_type="Note On" control="18" value="127" />
        <Off channel="4" event_type="Note Off" control="18" value="0" />
    </Output>
    <Output name="Auto Loop Half Button B">
        <On channel="4" event_type="Note On" control="19" value="127" />
        <Off channel="4" event_type="Note Off" control="19" value="0" />
    </Output>
    <Output name="Auto Loop One Button B">
        <On channel="4" event_type="Note On" control="12" value="127" />
        <Off channel="4" event_type="Note Off" control="12" value="0" />
    </Output>
    <Output name="Auto Loop Two Button B">
        <On channel="4" event_type="Note On" control="13" value="127" />
        <Off channel="4" event_type="Note Off" control="13" value="0" />
    </Output>
    <Output name="Auto Loop Eight Button B">
        <On channel="4" event_type="Note On" control="15" value="127" />
        <Off channel="4" event_type="Note Off" control="15" value="0" />
    </Output>
    <Output name="Auto Loop Four Button B">
        <On channel="4" event_type="Note On" control="14" value="127" />
        <Off channel="4" event_type="Note Off" control="14" value="0" />
    </Output>
    <Output name="Trigger Cue Point Button B0">
        <On channel="1" event_type="Note On" control="16" value="127" />
        <Off channel="1" event_type="Note Off" control="16" value="0" />
    </Output>
    <Output name="Trigger Cue Point Button B1">
        <On channel="1" event_type="Note On" control="17" value="127" />
        <Off channel="1" event_type="Note Off" control="17" value="0" />
    </Output>
    <Output name="Trigger Cue Point Button B2">
        <On channel="1" event_type="Note On" control="18" value="127" />
        <Off channel="1" event_type="Note Off" control="18" value="0" />
    </Output>
    <Output name="Trigger Cue Point Button B3">
        <On channel="1" event_type="Note On" control="19" value="127" />
        <Off channel="1" event_type="Note Off" control="19" value="0" />
    </Output>
    <Output name="Trigger Cue Point Button B4">
        <On channel="1" event_type="Note On" control="12" value="127" />
        <Off channel="1" event_type="Note Off" control="12" value="0" />
    </Output>
    <Output name="Prev Loop Button A">
        <On channel="2" event_type="Note On" control="22" value="127" />
        <Off channel="2" event_type="Note Off" control="22" value="0" />
    </Output>
    <Output name="Show Recording Widget Button">
        <On channel="1" event_type="Note On" control="68" value="127" />
        <Off channel="1" event_type="Note Off" control="68" value="0" />
    </Output>
    <Output name="Trigger Cue Point Button A4">
        <On channel="1" event_type="Note On" control="115" value="127" />
        <Off channel="1" event_type="Note Off" control="115" value="0" />
    </Output>
    <Output name="Key Lock Button A">
        <On channel="1" event_type="Note On" control="6" value="127" />
        <Off channel="1" event_type="Note Off" control="6" value="0" />
    </Output>
    <Output name="Key Lock Button B">
        <On channel="2" event_type="Note On" control="6" value="127" />
        <Off channel="2" event_type="Note Off" control="6" value="0" />
    </Output>
    <Output name="Eject Button B">
        <On channel="2" event_type="Note On" control="1" value="127" />
        <Off channel="2" event_type="Note Off" control="1" value="0" />
    </Output>
    <Output name="Auto Loop Button A">
        <On channel="1" event_type="Note On" control="29" value="127" />
        <Off channel="1" event_type="Note Off" control="29" value="0" />
    </Output>
    <Output name="Loop In Adjust Button A">
        <On channel="1" event_type="Note On" control="55" value="127" />
        <Off channel="1" event_type="Note Off" control="55" value="0" />
    </Output>
    <Output name="Loop Out Adjust Button A">
        <On channel="1" event_type="Note On" control="57" value="127" />
        <Off channel="1" event_type="Note Off" control="57" value="0" />
    </Output>
    <Output name="Reloop Button A">
        <On channel="1" event_type="Note On" control="64" value="127" />
        <Off channel="1" event_type="Note Off" control="64" value="0" />
    </Output>
    <Output name="Loop Button A">
        <On channel="1" event_type="Note On" control="104" value="127" />
        <Off channel="1" event_type="Note Off" control="104" value="0" />
    </Output>
    <Output name="Loop Button B">
        <On channel="2" event_type="Note On" control="104" value="127" />
        <Off channel="2" event_type="Note Off" control="104" value="0" />
    </Output>
    <Output name="Rewind A">
        <On channel="1" event_type="Note On" control="17" value="127" />
        <Off channel="1" event_type="Note Off" control="17" value="0" />
    </Output>
    <Output name="Fast Forward A">
        <On channel="1" event_type="Note On" control="16" value="127" />
        <Off channel="1" event_type="Note Off" control="16" value="0" />
    </Output>
    <Output name="Previous Track A">
        <On channel="1" event_type="Note On" control="13" value="127" />
        <Off channel="1" event_type="Note Off" control="13" value="0" />
    </Output>
    <Output name="Next Track A">
        <On channel="1" event_type="Note On" control="12" value="127" />
        <Off channel="1" event_type="Note Off" control="12" value="0" />
    </Output>
    <Output name="Relative Mode Button A">
        <On channel="1" event_type="Note On" control="96" value="127" />
        <Off channel="1" event_type="Note Off" control="96" value="0" />
    </Output>
    <Output name="Trigger Cue Point Button A2">
        <On channel="1" event_type="Note On" control="25" value="127" />
        <Off channel="1" event_type="Note Off" control="25" value="0" />
    </Output>
    <Output name="Trigger Cue Point Button A3">
        <On channel="1" event_type="Note On" control="32" value="127" />
        <Off channel="1" event_type="Note Off" control="32" value="0" />
    </Output>
    <Output name="Eject Button A">
        <On channel="1" event_type="Note On" control="1" value="127" />
        <Off channel="1" event_type="Note Off" control="1" value="0" />
    </Output>
    <Output name="Trigger Cue Point Button A1">
        <On channel="1" event_type="Note On" control="24" value="127" />
        <Off channel="1" event_type="Note Off" control="24" value="0" />
    </Output>
    <Output name="Trigger Cue Point Button A0">
        <On channel="1" event_type="Note On" control="23" value="127" />
        <Off channel="1" event_type="Note Off" control="23" value="0" />
    </Output>
    <Output name="Set Cue Point Button A0">
        <On channel="2" event_type="Note On" control="24" value="127" />
        <Off channel="2" event_type="Note Off" control="24" value="0" />
    </Output>
    <Output name="Set Cue Point Button A1">
        <On channel="2" event_type="Note On" control="20" value="127" />
        <Off channel="2" event_type="Note Off" control="20" value="0" />
    </Output>
    <Output name="Set Cue Point Button A2">
        <On channel="2" event_type="Note On" control="16" value="127" />
        <Off channel="2" event_type="Note Off" control="16" value="0" />
    </Output>
    <Output name="Set Cue Point Button A4">
        <On channel="2" event_type="Note On" control="13" value="127" />
        <Off channel="2" event_type="Note Off" control="13" value="0" />
    </Output>
    <Output name="Sample Player Master Mute">
        <On channel="3" event_type="Note On" control="23" value="127" />
        <Off channel="3" event_type="Note Off" control="23" value="0" />
    </Output>
    <Output name="Censor Button A">
        <On channel="1" event_type="Note On" control="22" value="127" />
        <Off channel="1" event_type="Note Off" control="22" value="0" />
    </Output>
    <Output name="Censor Button B">
        <On channel="1" event_type="Note On" control="14" value="127" />
        <Off channel="1" event_type="Note Off" control="14" value="0" />
    </Output>
    <Output name="Auto Loop Button B">
        <On channel="1" event_type="Note On" control="23" value="127" />
        <Off channel="1" event_type="Note Off" control="23" value="0" />
    </Output>
    <Output name="Loop Roll Button A">
        <On channel="1" event_type="Note On" control="22" value="127" />
        <Off channel="1" event_type="Note Off" control="22" value="0" />
    </Output>
    <Output name="Loop Roll Button B">
        <On channel="1" event_type="Note On" control="14" value="127" />
        <Off channel="1" event_type="Note Off" control="14" value="0" />
    </Output>
    <Output name="Clear Loop Button A">
        <On channel="2" event_type="Note On" control="27" value="127" />
        <Off channel="2" event_type="Note Off" control="27" value="0" />
    </Output>
    <Output name="Clear Loop Button B">
        <On channel="2" event_type="Note On" control="19" value="127" />
        <Off channel="2" event_type="Note Off" control="19" value="0" />
    </Output>
    <Output name="Reloop Button B">
        <On channel="2" event_type="Note On" control="16" value="127" />
        <Off channel="2" event_type="Note Off" control="16" value="0" />
    </Output>
    <Output name="Set Cue Point Button B0">
        <On channel="1" event_type="Note On" control="16" value="127" />
        <Off channel="1" event_type="Note Off" control="16" value="0" />
    </Output>
    <Output name="Set Cue Point Button B1">
        <On channel="1" event_type="Note On" control="17" value="127" />
        <Off channel="1" event_type="Note Off" control="17" value="0" />
    </Output>
    <Output name="Set Cue Point Button B2">
        <On channel="1" event_type="Note On" control="18" value="127" />
        <Off channel="1" event_type="Note Off" control="18" value="0" />
    </Output>
    <Output name="Set Cue Point Button B3">
        <On channel="1" event_type="Note On" control="19" value="127" />
        <Off channel="1" event_type="Note Off" control="19" value="0" />
    </Output>
    <Output name="Set Cue Point Button B4">
        <On channel="1" event_type="Note On" control="12" value="127" />
        <Off channel="1" event_type="Note Off" control="12" value="0" />
    </Output>
    <Output name="Set Cue Left Button">
        <On channel="1" event_type="Note On" control="22" value="127" />
        <Off channel="1" event_type="Note Off" control="22" value="0" />
    </Output>
    <Output name="Jump Temp Cue Left Button">
        <On channel="1" event_type="Note On" control="23" value="127" />
        <Off channel="1" event_type="Note Off" control="23" value="0" />
    </Output>
    <Output name="Set Cue Right Button">
        <On channel="1" event_type="Note On" control="14" value="127" />
        <Off channel="1" event_type="Note Off" control="14" value="0" />
    </Output>
    <Output name="Jump Temp Cue Right Button">
        <On channel="1" event_type="Note On" control="15" value="127" />
        <Off channel="1" event_type="Note Off" control="15" value="0" />
    </Output>
    <Output name="Set Temp Cue Left Button">
        <On channel="1" event_type="Note On" control="22" value="127" />
        <Off channel="1" event_type="Note Off" control="22" value="0" />
    </Output>
    <Output name="Set Temp Cue Right Button">
        <On channel="1" event_type="Note On" control="14" value="127" />
        <Off channel="1" event_type="Note Off" control="14" value="0" />
    </Output>
    <Output name="Sample Player Play 1">
        <On channel="3" event_type="Note On" control="16" value="127" />
        <Off channel="3" event_type="Note Off" control="16" value="0" />
    </Output>
    <Output name="Sample Player Play 2">
        <On channel="3" event_type="Note On" control="17" value="127" />
        <Off channel="3" event_type="Note Off" control="17" value="0" />
    </Output>
    <Output name="Sample Player Play 3">
        <On channel="3" event_type="Note On" control="18" value="127" />
        <Off channel="3" event_type="Note Off" control="18" value="0" />
    </Output>
    <Output name="Sample Player Play 4">
        <On channel="3" event_type="Note On" control="19" value="127" />
        <Off channel="3" event_type="Note Off" control="19" value="0" />
    </Output>
    <Output name="Sample Player Play 5">
        <On channel="3" event_type="Note On" control="12" value="127" />
        <Off channel="3" event_type="Note Off" control="12" value="0" />
    </Output>
    <Output name="Sample Player Play 6">
        <On channel="3" event_type="Note On" control="13" value="127" />
        <Off channel="3" event_type="Note Off" control="13" value="0" />
    </Output>
    <Output name="Sample Player Bank A Button">
        <On channel="3" event_type="Note On" control="24" value="127" />
        <Off channel="3" event_type="Note Off" control="24" value="0" />
    </Output>
    <Output name="Sample Player Bank B Button">
        <On channel="3" event_type="Note On" control="25" value="127" />
        <Off channel="3" event_type="Note Off" control="25" value="0" />
    </Output>
    <Output name="Sample Player Bank C Button">
        <On channel="3" event_type="Note On" control="26" value="127" />
        <Off channel="3" event_type="Note Off" control="26" value="0" />
    </Output>
    <Output name="Sample Player Bank D Button">
        <On channel="3" event_type="Note On" control="27" value="127" />
        <Off channel="3" event_type="Note Off" control="27" value="0" />
    </Output>
    <Output name="Sample Player Output L">
        <On channel="3" event_type="Note On" control="20" value="127" />
        <Off channel="3" event_type="Note Off" control="20" value="0" />
    </Output>
    <Output name="Sample Player Output M">
        <On channel="3" event_type="Note On" control="21" value="127" />
        <Off channel="3" event_type="Note Off" control="21" value="0" />
    </Output>
    <Output name="Sample Player Output R">
        <On channel="3" event_type="Note On" control="22" value="127" />
        <Off channel="3" event_type="Note Off" control="22" value="0" />
    </Output>
    <Output name="Loop In Adjust Button B">
        <On channel="2" event_type="Note On" control="12" value="127" />
        <Off channel="2" event_type="Note Off" control="12" value="0" />
    </Output>
    <Output name="Loop Out Adjust Button B">
        <On channel="2" event_type="Note On" control="13" value="127" />
        <Off channel="2" event_type="Note Off" control="13" value="0" />
    </Output>
    <Output name="Next Loop Button A">
        <On channel="2" event_type="Note On" control="23" value="127" />
        <Off channel="2" event_type="Note Off" control="23" value="0" />
    </Output>
    <Output name="Prev Loop Button B">
        <On channel="2" event_type="Note On" control="14" value="127" />
        <Off channel="2" event_type="Note Off" control="14" value="0" />
    </Output>
    <Output name="Next Loop Button B">
        <On channel="2" event_type="Note On" control="15" value="127" />
        <Off channel="2" event_type="Note Off" control="15" value="0" />
    </Output>
    <Output name="Auto Loop Save or Lock Container A">
        <On channel="2" event_type="Note On" control="27" value="127" />
        <Off channel="2" event_type="Note Off" control="27" value="0" />
    </Output>
    <Output name="Auto Loop Save or Lock Container B">
        <On channel="2" event_type="Note On" control="27" value="127" />
        <Off channel="2" event_type="Note Off" control="27" value="0" />
    </Output>
    <Output name="Auto Loop Sixteenth Button A">
        <On channel="4" event_type="Note On" control="24" value="127" />
        <Off channel="4" event_type="Note Off" control="24" value="0" />
    </Output>
    <Output name="Auto Loop Eighth Button A">
        <On channel="4" event_type="Note On" control="25" value="127" />
        <Off channel="4" event_type="Note Off" control="25" value="0" />
    </Output>
    <Output name="Auto Loop Eight Button A">
        <On channel="4" event_type="Note On" control="23" value="127" />
        <Off channel="4" event_type="Note Off" control="23" value="0" />
    </Output>
    <Output name="Auto Loop Four Button A">
        <On channel="4" event_type="Note On" control="22" value="127" />
        <Off channel="4" event_type="Note Off" control="22" value="0" />
    </Output>
    <Output name="Auto Loop Two Button A">
        <On channel="4" event_type="Note On" control="21" value="127" />
        <Off channel="4" event_type="Note Off" control="21" value="0" />
    </Output>
    <Output name="Auto Loop One Button A">
        <On channel="4" event_type="Note On" control="20" value="127" />
        <Off channel="4" event_type="Note Off" control="20" value="0" />
    </Output>
    <Output name="Auto Loop Fourth Button A">
        <On channel="4" event_type="Note On" control="26" value="127" />
        <Off channel="4" event_type="Note Off" control="26" value="0" />
    </Output>
    <Output name="Auto Loop Half Button A">
        <On channel="4" event_type="Note On" control="27" value="127" />
        <Off channel="4" event_type="Note Off" control="27" value="0" />
    </Output>
    <Output name="Auto Loop Sixteenth Button B">
        <On channel="4" event_type="Note On" control="16" value="127" />
        <Off channel="4" event_type="Note Off" control="16" value="0" />
    </Output>
    <Output name="Auto Loop Eighth Button B">
        <On channel="4" event_type="Note On" control="17" value="127" />
        <Off channel="4" event_type="Note Off" control="17" value="0" />
    </Output>
    <Output name="Auto Loop Fourth Button B">
        <On channel="4" event_type="Note On" control="18" value="127" />
        <Off channel="4" event_type="Note Off" control="18" value="0" />
    </Output>
    <Output name="Auto Loop Half Button B">
        <On channel="4" event_type="Note On" control="19" value="127" />
        <Off channel="4" event_type="Note Off" control="19" value="0" />
    </Output>
    <Output name="Auto Loop One Button B">
        <On channel="4" event_type="Note On" control="12" value="127" />
        <Off channel="4" event_type="Note Off" control="12" value="0" />
    </Output>
    <Output name="Auto Loop Two Button B">
        <On channel="4" event_type="Note On" control="13" value="127" />
        <Off channel="4" event_type="Note Off" control="13" value="0" />
    </Output>
    <Output name="Auto Loop Eight Button B">
        <On channel="4" event_type="Note On" control="15" value="127" />
        <Off channel="4" event_type="Note Off" control="15" value="0" />
    </Output>
    <Output name="Auto Loop Four Button B">
        <On channel="4" event_type="Note On" control="14" value="127" />
        <Off channel="4" event_type="Note Off" control="14" value="0" />
    </Output>
    <Output name="Trigger Cue Point Button B0">
        <On channel="1" event_type="Note On" control="16" value="127" />
        <Off channel="1" event_type="Note Off" control="16" value="0" />
    </Output>
    <Output name="Trigger Cue Point Button B1">
        <On channel="1" event_type="Note On" control="17" value="127" />
        <Off channel="1" event_type="Note Off" control="17" value="0" />
    </Output>
    <Output name="Trigger Cue Point Button B2">
        <On channel="1" event_type="Note On" control="18" value="127" />
        <Off channel="1" event_type="Note Off" control="18" value="0" />
    </Output>
    <Output name="Trigger Cue Point Button B3">
        <On channel="1" event_type="Note On" control="19" value="127" />
        <Off channel="1" event_type="Note Off" control="19" value="0" />
    </Output>
    <Output name="Trigger Cue Point Button B4">
        <On channel="1" event_type="Note On" control="12" value="127" />
        <Off channel="1" event_type="Note Off" control="12" value="0" />
    </Output>
    <Output name="Prev Loop Button A">
        <On channel="2" event_type="Note On" control="22" value="127" />
        <Off channel="2" event_type="Note Off" control="22" value="0" />
    </Output>
    <Output name="Show Recording Widget Button">
        <On channel="1" event_type="Note On" control="68" value="127" />
        <Off channel="1" event_type="Note Off" control="68" value="0" />
    </Output>
    <Output name="Trigger Cue Point Button A4">
        <On channel="1" event_type="Note On" control="115" value="127" />
        <Off channel="1" event_type="Note Off" control="115" value="0" />
    </Output>
    <Output name="Key Lock Button A">
        <On channel="1" event_type="Note On" control="6" value="127" />
        <Off channel="1" event_type="Note Off" control="6" value="0" />
    </Output>
    <Output name="Key Lock Button B">
        <On channel="2" event_type="Note On" control="6" value="127" />
        <Off channel="2" event_type="Note Off" control="6" value="0" />
    </Output>
    <Output name="Eject Button B">
        <On channel="2" event_type="Note On" control="1" value="127" />
        <Off channel="2" event_type="Note Off" control="1" value="0" />
    </Output>
    <Output name="Auto Loop Button A">
        <On channel="1" event_type="Note On" control="29" value="127" />
        <Off channel="1" event_type="Note Off" control="29" value="0" />
    </Output>
    <Output name="Loop In Adjust Button A">
        <On channel="1" event_type="Note On" control="55" value="127" />
        <Off channel="1" event_type="Note Off" control="55" value="0" />
    </Output>
    <Output name="Loop Out Adjust Button A">
        <On channel="1" event_type="Note On" control="57" value="127" />
        <Off channel="1" event_type="Note Off" control="57" value="0" />
    </Output>
    <Output name="Reloop Button A">
        <On channel="1" event_type="Note On" control="64" value="127" />
        <Off channel="1" event_type="Note Off" control="64" value="0" />
    </Output>
    <Output name="Loop Button A">
        <On channel="1" event_type="Note On" control="104" value="127" />
        <Off channel="1" event_type="Note Off" control="104" value="0" />
    </Output>
    <Output name="Loop Button B">
        <On channel="2" event_type="Note On" control="104" value="127" />
        <Off channel="2" event_type="Note Off" control="104" value="0" />
    </Output>
    <Output name="Rewind A">
        <On channel="1" event_type="Note On" control="17" value="127" />
        <Off channel="1" event_type="Note Off" control="17" value="0" />
    </Output>
    <Output name="Fast Forward A">
        <On channel="1" event_type="Note On" control="16" value="127" />
        <Off channel="1" event_type="Note Off" control="16" value="0" />
    </Output>
    <Output name="Previous Track A">
        <On channel="1" event_type="Note On" control="13" value="127" />
        <Off channel="1" event_type="Note Off" control="13" value="0" />
    </Output>
    <Output name="Next Track A">
        <On channel="1" event_type="Note On" control="12" value="127" />
        <Off channel="1" event_type="Note Off" control="12" value="0" />
    </Output>
    <Output name="Relative Mode Button A">
        <On channel="1" event_type="Note On" control="96" value="127" />
        <Off channel="1" event_type="Note Off" control="96" value="0" />
    </Output>
    <Output name="Trigger Cue Point Button A2">
        <On channel="1" event_type="Note On" control="25" value="127" />
        <Off channel="1" event_type="Note Off" control="25" value="0" />
    </Output>
    <Output name="Trigger Cue Point Button A3">
        <On channel="1" event_type="Note On" control="32" value="127" />
        <Off channel="1" event_type="Note Off" control="32" value="0" />
    </Output>
    <Output name="Eject Button A">
        <On channel="1" event_type="Note On" control="1" value="127" />
        <Off channel="1" event_type="Note Off" control="1" value="0" />
    </Output>
    <Output name="Trigger Cue Point Button A1">
        <On channel="1" event_type="Note On" control="24" value="127" />
        <Off channel="1" event_type="Note Off" control="24" value="0" />
    </Output>
    <Output name="Trigger Cue Point Button A0">
        <On channel="1" event_type="Note On" control="23" value="127" />
        <Off channel="1" event_type="Note Off" control="23" value="0" />
    </Output>
</midi>
